<svg id="Layer_1" data-name="Layer 1" xmlns="http://www.w3.org/2000/svg" viewBox="0 0 357.73 548.72"><defs><style>.cls-1{fill:#ffa845;}.cls-2{fill:#1bd2d6;}.cls-3{fill:#1cd5bd;}.cls-4{fill:#5d7088;}.cls-5{fill:#ffdacb;}.cls-6{fill:#fd5539;}</style></defs><title>Artboard 70ldpi</title><path class="cls-1" d="M87.68,353.61l90.53,90.83V256.83C131.49,269.77,95.88,307.24,87.68,353.61Z"/><path class="cls-2" d="M178.21,496h36a134.58,134.58,0,0,1-36-4.94Z"/><path class="cls-2" d="M229.57,496l-.83-.84a137.36,137.36,0,0,1-14.57.84Z"/><path class="cls-3" d="M178.21,256.83V115.2H44.67V310.47l43,43.14C95.88,307.24,131.49,269.77,178.21,256.83Z"/><path class="cls-4" d="M85.76,373.93a117.5,117.5,0,0,1,1.92-20.32l-43-43.14V496H178.21V491C124.82,476.24,85.76,429.46,85.76,373.93Z"/><path class="cls-5" d="M342.57,373.93c0-67.4-57.49-122-128.4-122a134.18,134.18,0,0,0-36,4.94V444.44l50.53,50.69C292.78,488.25,342.57,436.64,342.57,373.93Z"/><path class="cls-2" d="M178.21,491a134.58,134.58,0,0,0,36,4.94,137.36,137.36,0,0,0,14.57-.84l-50.53-50.69Z"/><path class="cls-6" d="M85.76,373.93c0,55.53,39.06,102.31,92.45,117.1V444.44L87.68,353.61A117.5,117.5,0,0,0,85.76,373.93Z"/></svg>