<svg id="Layer_1" data-name="Layer 1" xmlns="http://www.w3.org/2000/svg" xmlns:xlink="http://www.w3.org/1999/xlink" viewBox="0 0 1110.2 659.78"><defs><style>.cls-1{fill:url(#linear-gradient);}.cls-2{fill:url(#linear-gradient-2);}.cls-3{fill:url(#Degradado_sin_nombre_928);}.cls-4{fill:#fff;}.cls-5{fill:url(#Degradado_sin_nombre_928-2);}</style><linearGradient id="linear-gradient" x1="1010.32" y1="618.12" x2="432.87" y2="593.89" gradientUnits="userSpaceOnUse"><stop offset="0" stop-color="#3d0056"/><stop offset="1" stop-color="#e33fc5"/></linearGradient><linearGradient id="linear-gradient-2" x1="1987.37" y1="628" x2="840.55" y2="607.81" xlink:href="#linear-gradient"/><linearGradient id="Degradado_sin_nombre_928" x1="180.1" y1="826.22" x2="606.88" y2="826.22" gradientUnits="userSpaceOnUse"><stop offset="0" stop-color="#3597ff"/><stop offset="0.58" stop-color="#4c53de"/><stop offset="0.73" stop-color="#4d4edb"/><stop offset="0.9" stop-color="#5140d1"/><stop offset="1" stop-color="#5434ca"/></linearGradient><linearGradient id="Degradado_sin_nombre_928-2" x1="180.86" y1="460.05" x2="606.53" y2="460.05" xlink:href="#Degradado_sin_nombre_928"/></defs><title>REVIEWSBANK logo</title><path d="M185.33,912.85H228c24.3,0,45.13,8.33,45.13,36.46,0,27.25-20.83,38.54-45.13,38.54H215.19v37.84H185.33ZM226,964.24c11.81,0,18.06-5.21,18.06-14.93s-6.25-12.85-18.06-12.85H215.19v27.78Zm-3.3,15.8,20.14-19.8,36.63,65.45H246.09Z" transform="translate(-166.38 -367.99)"/><path d="M294.7,912.85h72.91v25H324.56v17.71h36.8v25h-36.8v20.13h44.79v25H294.7Z" transform="translate(-166.38 -367.99)"/><path d="M377,912.85h31.6l11.8,49.3c3.13,12,5.21,23.61,8.33,35.77h.7c3.12-12.16,5.38-23.79,8.33-35.77l11.46-49.3h30.55l-33.33,112.84H410.32Z" transform="translate(-166.38 -367.99)"/><path d="M488.79,912.85h29.86v112.84H488.79Z" transform="translate(-166.38 -367.99)"/><path d="M543.65,912.85h72.91v25h-43v17.71h36.8v25h-36.8v20.13H618.3v25H543.65Z" transform="translate(-166.38 -367.99)"/><path d="M629.41,912.85H660l6.25,49.3c1.21,11.81,2.6,23.61,3.82,35.42h.69c2.08-11.81,4.17-23.78,6.25-35.42l10.76-49.3h25l10.76,49.3c2.09,11.29,4.17,23.44,6.25,35.42h.7c1.21-12,2.6-24,3.82-35.42l6.25-49.3H769l-18.75,112.84H712.39l-8.68-44.79c-1.73-8.68-3.12-18-4.16-26.38h-.7c-1.21,8.33-2.43,17.7-4.16,26.38l-8.34,44.79H649.2Z" transform="translate(-166.38 -367.99)"/><path d="M776.28,1011.63l17-20.48c8,6.42,18.05,10.93,26.38,10.93,9,0,12.85-3,12.85-8,0-5.38-5.73-7.12-15.28-10.94l-14.06-5.9c-12.15-4.86-22.74-15.11-22.74-31.42,0-19.27,17.36-35.07,42-35.07a54.26,54.26,0,0,1,37.5,15.1L845,944.62c-7.64-5.38-14.24-8.16-22.57-8.16-7.29,0-11.8,2.61-11.8,7.64,0,5.38,6.42,7.29,16.66,11.28L841,960.77c14.06,5.55,22,15.27,22,30.9,0,19.09-16,36.1-44.09,36.1C804.75,1027.77,788.43,1022.57,776.28,1011.63Z" transform="translate(-166.38 -367.99)"/><path d="M884.21,911.76H918c23.17,0,39.2,7.87,39.2,27.9,0,11.26-6,21.27-16.65,24.74v.7c13.61,2.68,23.17,11.67,23.17,27.26,0,22.39-17.72,33.33-43.12,33.33H884.21Zm31.37,48.48c19.38,0,27.4-7.15,27.4-18.7,0-13.31-9.12-18.28-26.74-18.28H898.71v37Zm3,54c19.49,0,31-7,31-22.38,0-14-11-20.45-31-20.45H898.71v42.83Z" transform="translate(-166.38 -367.99)"/><path d="M1009.72,911.76h16.36l38.54,113.93h-15.35l-19.87-63.63c-4.1-12.74-7.75-25.25-11.41-38.4h-.69c-3.53,13.22-7.18,25.66-11.28,38.4l-20.09,63.63H971.18Zm-18.28,67.65h52.46V991H991.44Z" transform="translate(-166.38 -367.99)"/><path d="M1080,911.76h15l41.24,71.62,12.3,23.59h.69c-.73-11.49-1.84-24.33-1.84-36.25v-59h13.77v113.93h-15L1105,954l-12.3-23.53h-.7c.73,11.53,1.85,23.68,1.85,35.59v59.63H1080Z" transform="translate(-166.38 -367.99)"/><path d="M1192.36,911.76h14.5v57.15h.47l47.35-57.15h16.39l-35.65,43.41,41.15,70.52h-16.18l-34-59.2-19.54,23.18v36h-14.5Z" transform="translate(-166.38 -367.99)"/><path class="cls-1" d="M1025.9,849.52H899.38V689.14H844.93c-103,0-191.29-47.82-191.29-163.36,0-119.14,88.28-154.48,191.29-154.48h181ZM899.38,589.08V471.37H853.77c-50,0-76.52,13.22-76.52,54.41s26.49,63.3,76.52,63.3Zm-131,260.44H627.15L782.41,572.17,867.73,656Z" transform="translate(-166.38 -367.99)"/><path class="cls-2" d="M899.38,371.3h172.13c100.06,0,181,25,181,119.19,0,41.19-23.55,88.27-60.36,103v2.91c45.61,13.26,82.42,48.56,82.42,111.85,0,98.6-85.36,141.26-188.33,141.26H899.38ZM1068.6,558.17c41.19,0,60.31-19.12,60.31-48.56s-19.12-41.19-60.31-41.19h-42.7v89.75Zm8.8,194.23c50,0,73.58-17.65,73.58-53s-23.55-48.56-73.58-48.56h-51.5V752.4Z" transform="translate(-166.38 -367.99)"/><path class="cls-3" d="M393.58,850.34H193.5c-12.2,0-13.34-1.14-13.38-13.25,0-7.77,0-15.54,0-23.31.1-10.34,1.37-11.66,11.59-11.66q88.39,0,176.78,0,112.89,0,225.79,0c11.35,0,12.47,1.11,12.54,12.35q.07,11.65,0,23.31c-.08,11.34-1.25,12.56-12.38,12.56q-76.74,0-153.47,0Z" transform="translate(-166.38 -367.99)"/><path d="M393.49,551.28q-101.7,0-203.4,0c-14.39,0-23.62-8.08-23.71-20.55-.06-7.87,3.48-13.81,9.92-18.23q102.06-70,204.1-140c9.08-6.24,17.84-5.72,26.83.46Q508.54,442.55,610,512.09c9.54,6.56,12.76,15.32,9.62,24.94-3,9.12-10.59,14.21-21.88,14.22Q495.6,551.32,393.49,551.28Zm-.15-6.73q101.25,0,202.49.06c7.92,0,14.55-1.83,17.2-10.07s-1.91-13.51-8.43-18q-99.75-68.3-199.38-136.74c-10-6.87-13.79-6.76-23.93.21L229.65,484.16c-15.89,10.92-31.72,21.92-47.7,32.71-6.33,4.27-10.55,9.42-8.12,17.39,2.53,8.25,9,10.64,17,10.3,1.87-.08,3.75,0,5.63,0Z" transform="translate(-166.38 -367.99)"/><path d="M276,741.13H235.68V612.37H276Z" transform="translate(-166.38 -367.99)"/><path d="M413.75,741.15h-40.4V612.31h40.4Z" transform="translate(-166.38 -367.99)"/><path d="M510.77,741V612.51h40.54V741Z" transform="translate(-166.38 -367.99)"/><path d="M392.72,787.78c-9.1,0-18.2-.08-27.29,0-6.07.07-8.81-2.85-8.77-8.81,0-7,.06-13.91,0-20.87-.07-6.22,2.55-9.35,9.13-9.29q27.68.25,55.37,0c6.54-.06,9.27,3,9.2,9.22-.08,6.69-.23,13.39,0,20.07s-2.7,9.85-9.53,9.72c-9.36-.18-18.72,0-28.08,0Z" transform="translate(-166.38 -367.99)"/><path d="M392.72,604.46c-9.09,0-18.18-.06-27.27,0-6,0-8.84-2.82-8.79-8.8.07-7.22,0-14.44,0-21.66,0-5.55,2.63-8.46,8.3-8.45q28.47,0,56.95,0c5.62,0,8.39,2.78,8.38,8.37,0,7.22,0,14.44,0,21.66,0,5.91-2.62,8.93-8.72,8.86-9.62-.1-19.25,0-28.88,0Z" transform="translate(-166.38 -367.99)"/><path d="M255.45,604.45c-9.09,0-18.19-.12-27.28.06-5.95.12-9.14-2.4-9.2-8.42q-.1-11.24,0-22.47c0-5.63,3-8.12,8.63-8.09q28.09.11,56.17,0c6.09,0,8.82,2.7,8.72,8.73-.12,7.22-.12,14.45,0,21.67.07,6.13-3,8.65-8.94,8.57C274.18,604.35,264.81,604.44,255.45,604.45Z" transform="translate(-166.38 -367.99)"/><path d="M530.71,604.46c-8.83,0-17.66-.17-26.48,0-6.66.16-10-2.42-9.75-9.41.24-7.22,0-14.45.06-21.67,0-5.24,2.57-7.9,7.87-7.9q28.89,0,57.77.05c5.36,0,7.77,3,7.84,8.07.09,7.22,0,14.45.05,21.67,0,6.28-2.79,9.33-9.28,9.19C549.43,604.31,540.07,604.46,530.71,604.46Z" transform="translate(-166.38 -367.99)"/><path d="M531.28,787.79c-9.36,0-18.72-.07-28.07,0-6,.06-8.82-2.74-8.71-8.79.14-7.22.09-14.44,0-21.66,0-5.58,2.46-8.49,8.17-8.48,19,0,38,.07,56.94,0,5.83,0,8.28,3,8.37,8.39.12,7.48.13,15,0,22.46-.1,5.49-3,8.2-8.64,8.12C550,787.68,540.63,787.79,531.28,787.79Z" transform="translate(-166.38 -367.99)"/><path d="M255.42,787.79c-9.08,0-18.18-.15-27.26.05-6.53.15-9.26-3-9.23-9.23,0-7,0-13.9,0-20.85,0-5.71,2.42-9,8.68-8.91q28.07.18,56.12,0c6.09,0,8.79,2.8,8.7,8.8-.11,7-.18,13.91,0,20.85s-3.17,9.52-9.83,9.34C273.6,787.6,264.51,787.78,255.42,787.79Z" transform="translate(-166.38 -367.99)"/><path class="cls-4" d="M393.34,544.55H196.48c-1.88,0-3.76-.07-5.63,0-8,.34-14.49-2-17-10.3-2.43-8,1.79-13.12,8.12-17.39,16-10.79,31.81-21.79,47.7-32.71L381.29,380c10.14-7,13.92-7.08,23.93-.21q99.69,68.35,199.38,136.74c6.52,4.46,11.13,9.62,8.43,18s-9.28,10.08-17.2,10.07Q494.58,544.46,393.34,544.55Zm-.19-7.31v0H592.48a47.61,47.61,0,0,0,8-.22c5.93-1,8-7,3.93-11.37a29.25,29.25,0,0,0-5-4q-99-68-198-136c-5.73-3.95-10.11-3.9-15.88.08q-96.21,66.39-192.69,132.39c-3.31,2.27-6.92,4.29-9.66,7.13-1.56,1.61-2.71,5-2.1,7s3.39,3.93,5.63,4.71c2.41.83,5.29.32,8,.32Z" transform="translate(-166.38 -367.99)"/><path class="cls-5" d="M604.43,525.6a29.25,29.25,0,0,0-5-4q-99-68-198-136c-5.73-3.95-10.11-3.9-15.88.08q-96.21,66.39-192.69,132.39c-3.31,2.27-6.92,4.29-9.66,7.13-1.56,1.61-2.71,5-2.1,7s3.39,3.93,5.63,4.71c2.41.83,5.29.32,8,.32H393.15v0H592.48a47.61,47.61,0,0,0,8-.22C606.43,536,608.47,530,604.43,525.6Z" transform="translate(-166.38 -367.99)"/></svg>