<svg id="Layer_1" data-name="Layer 1" xmlns="http://www.w3.org/2000/svg" xmlns:xlink="http://www.w3.org/1999/xlink" viewBox="0 0 356.97 350.15"><defs><style>.cls-1{opacity:0.69;}.cls-2{fill:url(#linear-gradient);}.cls-3{fill:url(#linear-gradient-2);}.cls-4{fill:url(#linear-gradient-3);}.cls-5{fill:url(#linear-gradient-5);}.cls-6{fill:url(#linear-gradient-6);}</style><linearGradient id="linear-gradient" x1="14.95" y1="82.45" x2="340.76" y2="82.45" gradientUnits="userSpaceOnUse"><stop offset="0" stop-color="#ca00e7"/><stop offset="0.42" stop-color="#7500d0"/><stop offset="1" stop-color="#2f005c"/></linearGradient><linearGradient id="linear-gradient-2" x1="81.52" y1="85.26" x2="269.64" y2="85.26" xlink:href="#linear-gradient"/><linearGradient id="linear-gradient-3" x1="9" y1="222.64" x2="185.77" y2="222.64" xlink:href="#linear-gradient"/><linearGradient id="linear-gradient-5" x1="175.01" y1="223.04" x2="342.06" y2="223.04" xlink:href="#linear-gradient"/><linearGradient id="linear-gradient-6" x1="118.94" y1="226.51" x2="236.99" y2="226.51" xlink:href="#linear-gradient"/></defs><title>Artboard 3 copy 4ldpi</title><g class="cls-1"><path class="cls-2" d="M123.69,133.06h-4.94L15,128,88,31.83h184.9l67.85,96.22-103.22,5ZM32.84,119.68,119,123.86H237.32l86.27-4.19L268.13,41H92.57Z"/><path class="cls-3" d="M232.24,138.69,175.9,54.18l-51.7,84.51L81.52,31.83H269.64ZM95.1,41l30.84,77.19L173.15,41Zm83.1,0,51.46,77.19,27-77.19Z"/><path class="cls-4" d="M185.77,321.42,9,123.86H128.58ZM29.58,133.06,165.7,285.19l-44-152.13Z"/><path class="cls-4" d="M185.77,321.42,9,123.86H128.58ZM29.58,133.06,165.7,285.19l-44-152.13Z"/><path class="cls-5" d="M175,322.23l54-198.37h113Zm61.08-189.17L194.86,284.37,322.28,133.06Z"/><path class="cls-6" d="M180.53,329.16l-61.59-205.3H237Zm-49.22-196.1,48.83,162.79,44.77-162.79Z"/></g></svg>