<svg id="Layer_1" data-name="Layer 1" xmlns="http://www.w3.org/2000/svg" xmlns:xlink="http://www.w3.org/1999/xlink" viewBox="0 0 356.97 350.15"><defs><style>.cls-1{fill:none;}.cls-2{fill:url(#linear-gradient);}.cls-3{fill:url(#linear-gradient-2);}.cls-4{fill:url(#linear-gradient-3);}.cls-5{fill:url(#linear-gradient-5);}.cls-6{fill:url(#linear-gradient-6);}.cls-7{fill:url(#linear-gradient-7);}.cls-8{fill:url(#linear-gradient-8);}.cls-9{fill:url(#linear-gradient-9);}</style><linearGradient id="linear-gradient" x1="70.79" y1="192.21" x2="1219.42" y2="184.23" gradientUnits="userSpaceOnUse"><stop offset="0" stop-color="#ca00e7"/><stop offset="0.42" stop-color="#7500d0"/><stop offset="1" stop-color="#2f005c"/></linearGradient><linearGradient id="linear-gradient-2" x1="70.79" y1="192.19" x2="1219.42" y2="184.21" xlink:href="#linear-gradient"/><linearGradient id="linear-gradient-3" x1="70.79" y1="192.2" x2="1219.42" y2="184.23" xlink:href="#linear-gradient"/><linearGradient id="linear-gradient-5" x1="70.51" y1="152.13" x2="1219.14" y2="144.16" xlink:href="#linear-gradient"/><linearGradient id="linear-gradient-6" x1="70.78" y1="190.73" x2="1219.41" y2="182.76" xlink:href="#linear-gradient"/><linearGradient id="linear-gradient-7" x1="71.03" y1="227.59" x2="1219.66" y2="219.62" xlink:href="#linear-gradient"/><linearGradient id="linear-gradient-8" x1="71.17" y1="247.29" x2="1219.8" y2="239.31" xlink:href="#linear-gradient"/><linearGradient id="linear-gradient-9" x1="71.18" y1="248.43" x2="1219.81" y2="240.46" xlink:href="#linear-gradient"/></defs><title>Artboard 3ldpi</title><circle class="cls-1" cx="283.36" cy="246.96" r="19.3"/><circle class="cls-1" cx="118.48" cy="246.96" r="19.3" transform="translate(-38.03 22.17) rotate(-9.22)"/><path class="cls-2" d="M282.94,182l-.63-.16-35.46-49.64c-2.75-2.72-9-2.77-9.1-2.77H80.82L77,135.11c12-3.26,20.61-2.46,25.62,2.4,7,6.83,4.31,19.06,3.6,21.74a5,5,0,0,1-1,4.42c-4.86,6.15-26.44,5.1-34.2,4.51v6.41c9.26-2,16.09-1,20.31,2.92,5.57,5.14,4.28,13.26,4.23,13.61-1,6-3.68,10.18-8,12.53-6.82,3.73-15.79,1.6-20.06.21v9.45c5.46-.73,9.79.19,12.9,2.73a13.73,13.73,0,0,1,4.64,9.87c1.12,5.43.27,10.11-2.56,13.56-3.5,4.26-9,5.36-11.69,5.64-.45,4,.28,6.76,2.17,8.25,3.68,2.89,11.43.94,15.37-.49-1.91-12,0-21.55,5.76-28.42,8.92-10.69,23.65-10.82,24.28-10.82,14,1.16,23.45,5.77,28.36,13.71,5.68,9.2,3.52,20.12,2.13,24.88H249.88c-2.43-34.58,26-38.54,26.25-38.57,11.39-1.05,20.67,1.64,27.59,8,11,10,12.67,26,12.93,30.93,10.4,1.81,13.62-7.78,14.07-9.33V212.17C323.82,192.43,283.35,182.11,282.94,182Zm-76.76-1.71V138.21h35.08l31.58,42.09Z"/><path class="cls-3" d="M334.14,211.32c-6.84-20.52-44.18-31.09-49.72-32.55L249.52,130c-4-4-11.45-4-11.76-4H79L68.57,141.49l4.85-1.62c13-4.32,22.22-4.26,26.79.15,6.24,6,2.59,18.61,2.55,18.73l-.16.53.18.53a1.59,1.59,0,0,1-.22,1.68c-3.24,4.1-22,4-33,3l-1.91-.17V179l2.18-.54c9.14-2.29,15.61-1.76,19.23,1.57,4.18,3.83,3.18,10.41,3.17,10.47-.81,4.85-2.89,8.22-6.19,10-7.58,4.15-19.34-.78-19.46-.83l-2.44-1v18.83l2.1-.42c5.35-1.07,9.41-.53,12.06,1.63,3.3,2.68,3.38,7.13,3.41,7.52.94,4.68.34,8.37-1.78,11-3.58,4.39-10.46,4.47-10.53,4.47H67.87l-.24,1.45c-1,6.09.09,10.45,3.28,13a12.18,12.18,0,0,0,7.68,2.22,36.42,36.42,0,0,0,12.51-2.75l1.29-.55-.25-1.38C90,242.09,91.62,233,96.87,226.72c7.85-9.44,21.47-9.58,21.46-9.59,12.63,1.06,21.22,5.11,25.51,12,6.43,10.37,1.13,24,1.07,24.16l-.95,2.4H253.73l-.2-1.93c-3.29-32.89,22-36.53,23-36.67,10.31-.94,18.67,1.44,24.83,7.07C313,234.84,313.18,253.79,313.18,254v1.37l1.33.33c12.44,3.11,18.31-6.36,19.67-11.8l.05-32Zm-1.66,32.13s-3.51,14-17.54,10.53c0,0,0-42.1-38.59-38.59,0,0-28.07,3.5-24.56,38.59H146.54s14-35.09-28.06-38.59c0,0-35.09,0-28.07,38.59,0,0-24.56,10.52-21-10.53,0,0,17.54,0,14-17.54,0,0,0-14-17.54-10.52v-14s24.56,10.53,28.07-10.52c0,0,3.51-21.05-24.56-14V166.27s38.59,3.51,35.08-7c0,0,10.53-35.08-31.57-21l7-10.53H237.76s7,0,10.52,3.51l35.08,49.11s42.1,10.53,49.12,31.58Z"/><path class="cls-4" d="M283.36,180.3l-35.08-49.11c-3.51-3.51-10.52-3.51-10.52-3.51H79.89l-7,10.53c42.1-14,31.57,21,31.57,21,3.51,10.53-35.08,7-35.08,7V176.8c28.07-7,24.56,14,24.56,14-3.51,21-28.07,10.52-28.07,10.52v14c17.54-3.51,17.54,10.52,17.54,10.52,3.51,17.54-14,17.54-14,17.54-3.51,21.05,21,10.53,21,10.53-7-38.59,28.07-38.59,28.07-38.59,42.09,3.5,28.06,38.59,28.06,38.59H251.79c-3.51-35.09,24.56-38.59,24.56-38.59,38.59-3.51,38.59,38.59,38.59,38.59,14,3.51,17.54-10.53,17.54-10.53V211.88C325.46,190.83,283.36,180.3,283.36,180.3Zm47.36,62.92c-.45,1.55-3.67,11.14-14.07,9.33-.26-4.88-1.93-20.89-12.93-30.93-6.92-6.33-16.2-9-27.59-8-.29,0-28.68,4-26.25,38.57H149c1.39-4.76,3.55-15.68-2.13-24.88-4.91-7.94-14.4-12.55-28.36-13.71-.63,0-15.36.13-24.28,10.82-5.74,6.87-7.67,16.42-5.76,28.42-3.94,1.43-11.69,3.38-15.37.49-1.89-1.49-2.62-4.26-2.17-8.25,2.67-.28,8.19-1.38,11.69-5.64,2.83-3.45,3.68-8.13,2.56-13.56A13.73,13.73,0,0,0,80.51,216c-3.11-2.54-7.44-3.46-12.9-2.73v-9.45c4.27,1.39,13.24,3.52,20.06-.21,4.3-2.35,7-6.56,8-12.53,0-.35,1.34-8.47-4.23-13.61-4.22-3.9-11-4.88-20.31-2.92v-6.41c7.76.59,29.34,1.64,34.2-4.51a5,5,0,0,0,1-4.42c.71-2.68,3.43-14.91-3.6-21.74-5-4.86-13.62-5.66-25.62-2.4l3.78-5.67H237.75c.07,0,6.35.05,9.1,2.77l35.46,49.64.63.16c.41.1,40.88,10.42,47.78,30.16Z"/><path class="cls-4" d="M283.36,180.3l-35.08-49.11c-3.51-3.51-10.52-3.51-10.52-3.51H79.89l-7,10.53c42.1-14,31.57,21,31.57,21,3.51,10.53-35.08,7-35.08,7V176.8c28.07-7,24.56,14,24.56,14-3.51,21-28.07,10.52-28.07,10.52v14c17.54-3.51,17.54,10.52,17.54,10.52,3.51,17.54-14,17.54-14,17.54-3.51,21.05,21,10.53,21,10.53-7-38.59,28.07-38.59,28.07-38.59,42.09,3.5,28.06,38.59,28.06,38.59H251.79c-3.51-35.09,24.56-38.59,24.56-38.59,38.59-3.51,38.59,38.59,38.59,38.59,14,3.51,17.54-10.53,17.54-10.53V211.88C325.46,190.83,283.36,180.3,283.36,180.3Zm47.36,62.92c-.45,1.55-3.67,11.14-14.07,9.33-.26-4.88-1.93-20.89-12.93-30.93-6.92-6.33-16.2-9-27.59-8-.29,0-28.68,4-26.25,38.57H149c1.39-4.76,3.55-15.68-2.13-24.88-4.91-7.94-14.4-12.55-28.36-13.71-.63,0-15.36.13-24.28,10.82-5.74,6.87-7.67,16.42-5.76,28.42-3.94,1.43-11.69,3.38-15.37.49-1.89-1.49-2.62-4.26-2.17-8.25,2.67-.28,8.19-1.38,11.69-5.64,2.83-3.45,3.68-8.13,2.56-13.56A13.73,13.73,0,0,0,80.51,216c-3.11-2.54-7.44-3.46-12.9-2.73v-9.45c4.27,1.39,13.24,3.52,20.06-.21,4.3-2.35,7-6.56,8-12.53,0-.35,1.34-8.47-4.23-13.61-4.22-3.9-11-4.88-20.31-2.92v-6.41c7.76.59,29.34,1.64,34.2-4.51a5,5,0,0,0,1-4.42c.71-2.68,3.43-14.91-3.6-21.74-5-4.86-13.62-5.66-25.62-2.4l3.78-5.67H237.75c.07,0,6.35.05,9.1,2.77l35.46,49.64.63.16c.41.1,40.88,10.42,47.78,30.16Z"/><rect class="cls-5" x="13.23" y="145.22" width="84.2" height="14.03"/><rect class="cls-6" x="30.77" y="183.81" width="52.62" height="14.03"/><rect class="cls-7" x="44.8" y="222.4" width="31.57" height="10.52"/><path class="cls-8" d="M118.48,224.16a22.8,22.8,0,1,0,22.8,22.8A22.83,22.83,0,0,0,118.48,224.16Zm0,42.1A19.3,19.3,0,1,1,137.77,247,19.32,19.32,0,0,1,118.48,266.26Z"/><path class="cls-9" d="M283.36,224.16A22.8,22.8,0,1,0,306.17,247,22.83,22.83,0,0,0,283.36,224.16Zm0,42.1a19.3,19.3,0,1,1,19.3-19.3A19.32,19.32,0,0,1,283.36,266.26Z"/></svg>