<svg id="Layer_1" data-name="Layer 1" xmlns="http://www.w3.org/2000/svg" xmlns:xlink="http://www.w3.org/1999/xlink" viewBox="0 0 356.97 350.15"><defs><style>.cls-1{opacity:0.69;}.cls-2{fill:url(#linear-gradient);}.cls-3{fill:url(#linear-gradient-2);}.cls-4{fill:url(#linear-gradient-3);}.cls-5{fill:url(#linear-gradient-4);}</style><linearGradient id="linear-gradient" x1="-135.55" y1="223.63" x2="845.04" y2="223.63" gradientUnits="userSpaceOnUse"><stop offset="0" stop-color="#ca00e7"/><stop offset="0.42" stop-color="#7500d0"/><stop offset="1" stop-color="#2f005c"/></linearGradient><linearGradient id="linear-gradient-2" x1="-135.55" y1="150.3" x2="845.04" y2="150.3" xlink:href="#linear-gradient"/><linearGradient id="linear-gradient-3" x1="-135.55" y1="155.27" x2="845.04" y2="155.27" xlink:href="#linear-gradient"/><linearGradient id="linear-gradient-4" x1="-135.55" y1="156.08" x2="845.04" y2="156.08" xlink:href="#linear-gradient"/></defs><title>Artboard 3 copy 2ldpi</title><g class="cls-1"><path class="cls-2" d="M220.21,246.09a36.4,36.4,0,0,0-52.13,2.66l-7,7.89A37.34,37.34,0,0,0,154.56,267a131.74,131.74,0,0,1-64.95-60.62,37.08,37.08,0,0,0,13.49-9.64l7-7.88a38.2,38.2,0,0,0-2.61-53.19L95.67,124.77a36.41,36.41,0,0,0-52.14,2.66l-7,7.9a37.34,37.34,0,0,0-2.75,3.49c-7.73,7-13.85,22.35-10.26,41.28A188.78,188.78,0,0,0,98.46,298.17v0h0a183.66,183.66,0,0,0,46.15,24.21l0,0h.09A179.69,179.69,0,0,0,188.18,332c1.75.16,3.5.24,5.23.24a47.72,47.72,0,0,0,25.23-6.76,37.29,37.29,0,0,0,9-7.41l7-7.89A38.22,38.22,0,0,0,232,257Z"/><path class="cls-3" d="M193.79,13.64A142.65,142.65,0,0,0,59,109.58H77.4A125.43,125.43,0,0,1,182.14,31.47L196.25,55l18-22.45A125.42,125.42,0,0,1,319,149.2l-25,15,22.46,18a125.51,125.51,0,0,1-65.65,85.75V287A142.62,142.62,0,0,0,193.79,13.64Z"/><path class="cls-4" d="M165.2,167.51c16.2-11.38,21.72-17.58,21.72-30.4,0-13.18-7.74-26.65-30.36-26.65-20.23,0-30.16,12.65-31.43,27.84h18.48c1.21-7.66,4.32-12.94,12.95-12.94,7.41,0,11.11,4.29,11.11,11.92s-3.76,10.83-16.19,19.91c-19,13.88-25.94,26.35-25.94,41.67v1.23H187.8l2.38-16H148.49C150,180.14,154.35,175.13,165.2,167.51Z"/><path class="cls-5" d="M234.9,112.06l-36.74,51.56V180.3H238v19.79h17.78V180.3h8.85l1.76-15.49H255.76V112.06ZM238,149.15v15.66H215.12c8.29-11.92,19.75-28.69,23.25-36.06C238,134.28,238,139.6,238,149.15Z"/></g></svg>