<svg id="Layer_1" data-name="Layer 1" xmlns="http://www.w3.org/2000/svg" xmlns:xlink="http://www.w3.org/1999/xlink" viewBox="0 0 1782.57 1042.86"><defs><style>.cls-1{fill:url(#linear-gradient);}.cls-2{fill:#21013a;}.cls-3{fill:url(#linear-gradient-2);}.cls-4{fill:#fff;}</style><linearGradient id="linear-gradient" x1="102.65" y1="334.37" x2="732.88" y2="334.37" gradientUnits="userSpaceOnUse"><stop offset="0" stop-color="#ca00e7"/><stop offset="0.42" stop-color="#7500d0"/><stop offset="1" stop-color="#2f005c"/></linearGradient><linearGradient id="linear-gradient-2" x1="1404.17" y1="541.37" x2="1677.53" y2="541.37" xlink:href="#linear-gradient"/></defs><title>Artboard 71ldpi</title><path class="cls-1" d="M732.88,162.16q0,26.28-36.38,54.57,33.13,48.93,33.14,90.15,0,10.11-6.06,10.11-4.85,0-4.85-13.34,0-40.42-28.3-82.07Q631.81,265.25,531,297T352.08,328.71q-10.92,0-19-.81-64.69,90.15-64.69,173.83,0,57,35.38,90.15T400.18,625q115.21,0,205.36-110.36,54.57-66.7,54.57-126.54,0-31.51-19-50.12t-50.45-18.6q-50.44,0-108.36,53.16t-57.9,99.25q0,4,2.4,4a6.07,6.07,0,0,0,3.2-1.62q10.83-9.71,20-9.7,20.44,0,20.44,22.23,0,29.93-29.11,29.92-26.67,0-26.68-32.34,0-57.81,58.62-114.61t118.85-56.8q77.61,0,77.62,85.3,0,88.14-84.29,160.69t-187,72.56q-71.55,0-120.26-48.1T229.59,464.54q0-68.71,48.1-141.08-175-32.34-175-138.26,0-63.06,65.09-105.51t162.1-42.44q135.42,0,273.68,90.15a244.32,244.32,0,0,1,48.91-4.86Q732.88,122.54,732.88,162.16ZM592.2,129Q469.3,57.87,330.65,57.86q-85.71,0-149.78,40.43T116.8,192.88q0,96.63,164.13,124.92Q382.79,175.9,592.2,129Zm95,86.91q-31.14-44.86-83.68-79.63Q527.92,156.9,456,207.23t-118,114.61q84.48,0,187-30.93T687.2,215.92Zm39.21-53.76q0-33.14-64.68-33.15-20.22,0-48.1,5.66,48.09,33.15,79.63,77.21Q726.41,183.59,726.41,162.16Z"/><path class="cls-2" d="M744.48,661.18l14.65,168.14,25.93-168.14h26.86L836,830.23l17.09-169.05h27.16L853.11,900.11H825l-26.55-180-29,180H742.34L717.62,661.18Z"/><path class="cls-2" d="M965.12,743.26A33.24,33.24,0,0,0,948,738.07c-10.38,0-18.92,5.5-25.94,15.87V900.11H894.93V713.66h18.62l5.19,15.56c7.93-11.9,18.31-18,31.43-18a34.08,34.08,0,0,1,22.58,7.93Z"/><path class="cls-2" d="M1019.44,670.63c0,9.46-5.18,17.09-16.17,17.09-10.37,0-15.56-7.63-15.56-17.09,0-9.15,5.19-16.48,15.56-16.48C1014.26,654.15,1019.44,661.48,1019.44,670.63Zm-2.13,43V900.11H990.15V713.66Z"/><path class="cls-2" d="M1055.15,713.66V681l26.24-11v43.64h31.13v22.89h-31.13V854.34c0,14,7.94,22.58,19.84,22.58,4.88,0,9.15-1.53,13.73-4.88l7.33,23.19c-6.72,4.88-15.87,7.33-25.33,7.33-29.3,0-41.81-22-41.81-48.22V736.55H1035V713.66Z"/><path class="cls-2" d="M1168.68,670.63c0,9.46-5.19,17.09-16.18,17.09-10.37,0-15.56-7.63-15.56-17.09,0-9.15,5.19-16.48,15.56-16.48C1163.49,654.15,1168.68,661.48,1168.68,670.63Zm-2.14,43V900.11h-27.16V713.66Z"/><path class="cls-2" d="M1213.24,713.66l4.27,10.68a50.6,50.6,0,0,1,33.57-13.12c21.36,0,39.06,14.65,39.06,45.16V900.11H1263V762.18c0-15.26-5.8-24.11-19.53-24.11-7.94,0-15,3.36-21.67,9.77V900.11h-27.16V713.66Z"/><path class="cls-2" d="M1316.39,756.38c0-28.07,20.44-45.16,46.38-45.16,9.16,0,17.7,2.14,24.72,6.41l33.87-1.83-15.25,23.5a51.7,51.7,0,0,1,3,17.08v49.44c0,28.08-20.75,45.16-46.38,45.16a60.58,60.58,0,0,1-10.68-.91c-4.88,4-7.32,8.54-7.32,14.64,0,7.63,4.57,12.82,15.56,12.82h53.4l-10.68,23.19h-52.18c-13.43,0-18.61,6.11-18.61,14.35,0,7.93,5.18,14.34,15.26,14.34h42.72l-10.69,22.89h-37.22c-25,0-37.84-17.09-37.84-36,0-14.65,7.32-27.47,22.58-33.57-2.75-4-4.27-9.15-4.27-15.26,0-10.37,5.19-18,13.42-23.49-12.2-7.33-19.83-20.76-19.83-38.15ZM1342,805.51c0,13.43,8.54,20.45,20.75,20.45,11.9,0,20.75-7,20.75-20.45V756.69c0-13.73-8.85-20.44-20.75-20.44-12.21,0-20.75,6.71-20.75,20.44Z"/><path class="cls-2" d="M724.8,312v69.57a48.93,48.93,0,0,1,29.29-9.76c21.36,0,39.06,14.64,39.06,45.16V560.69H766V422.76c0-15.26-5.79-24.11-19.53-24.11-7.93,0-15,3.36-21.66,9.76V560.69H697.64v-242Z"/><path class="cls-2" d="M845.34,502.1v14.95c0,12.82,8.24,19.84,19.53,19.84,11.6,0,19.84-7,19.84-19.84v-11.9l24.72-6.41V518c0,28.07-20.15,45.16-45.47,45.16-25,0-44.86-17.09-44.86-45.16V417c0-28.08,19.83-45.16,45.16-45.16,22,0,45.78,11.9,45.78,49.13,0,22.88-9.16,39.06-29.91,56.14A291.09,291.09,0,0,1,845.34,502.1Zm0-26.25A162.14,162.14,0,0,0,866.4,460c12.51-11.6,17.39-22.28,17.39-37.23,0-19.23-9.15-25.94-19.83-25.94-11.6,0-18.62,7.93-18.62,21.36Z"/><path class="cls-2" d="M937.21,392.54c8.85-13.12,25.63-20.74,43.33-20.74,29.6,0,44.25,21.05,44.25,50.65V560.69H1007.7l-4.89-10.38c-9.15,7.63-21.36,12.82-34.17,12.82-20.45,0-39.37-12.82-39.37-48.22,0-27.46,11.29-44.55,38.45-65,8.85-6.41,19.83-13.74,31.43-21.06v-5.8c0-15.56-7.32-26.24-22.28-26.24a28.44,28.44,0,0,0-24.71,14.34Zm61.94,134.28V455.11c-7.32,4.57-12.81,8.23-18,12.2-19.23,14.95-24.72,28.07-24.72,43.64,0,18.92,7.93,26.55,20.14,26.55C985.12,537.5,992.44,533.53,999.15,526.82Z"/><path class="cls-2" d="M1070.87,374.24l4.57,11.59a49.16,49.16,0,0,1,33.88-14c20.44,0,38.45,14.64,38.45,45.16V518c0,30.51-18,45.16-38.45,45.16a47.26,47.26,0,0,1-29.91-10.68v60.42h-27.16V374.24Zm8.54,35.09V525.59c6.72,7,13.73,10.69,22.28,10.69,13.12,0,18.92-8.85,18.92-24.11V422.76c0-15.26-5.8-24.11-18.92-24.11C1093.14,398.65,1086.13,402.31,1079.41,409.33Z"/><path class="cls-2" d="M1217.7,632.4c0,13.74,8.24,20.75,20.45,20.75s20.75-7,20.75-20.75v-4.88l25.93-6.71V633c0,29.29-21.36,47.29-47.91,47.29-26.24,0-47-18-47-47.29V480.13c0-29.29,20.14-47.3,48.52-47.3s46.38,18,46.38,47.3v7.94H1258.9v-7.33c0-13.73-7.63-20.75-20.14-20.75-12.82,0-21.06,7-21.06,20.75Z"/><path class="cls-2" d="M1324.51,437.1l27.16,177.6,27.77-177.6h27.16L1365.41,676h-27.77L1297.05,437.1Z"/><path d="M1542.92,924.54s108.61,181.51-354,0c0,0-124.7-25.93-152.86,19.45,0,0,44.25-58.35,185-13C1221.1,931,1595.21,1080.12,1542.92,924.54Z"/><path class="cls-3" d="M1594.61,545.68a9.06,9.06,0,0,0-.48-1.57L1588.06,512c-2-11.18-3.83-21.6-5.78-32-7.6-40.39-15.31-80.76-22.8-121.17-.54-2.92-.67-6.68.71-9.06,10.26-17.71,30.83-54.08,30.83-54.08L1609.31,264,1575.47,213c48.43-21.13,62.35-61.7,102.06-63.89H1540.91V494.15h-.13V149.06H1404.17c39.7,2.19,53.62,42.76,102,63.89-11.33,17.11-22.58,34.07-33.83,51.05l18.29,31.68s20.56,36.37,30.83,54.08c1.37,2.38,1.24,6.14.7,9.06-7.49,40.41-15.19,80.78-22.79,121.17-.88,4.69-1.74,9.39-2.6,14.16l-13.49,71.36q-15.93,84.18-31.58,168.41c-.57,3.1.89,7.46,2.94,10,8.44,10.44,17.2,20.62,25.94,30.81,9.25,16.23,18.43,32.45,26.24,49.3,10.62,22.9,18.83,47.05,26.27,71.22,2.91,9.46.64,20.47,1.12,30.76.11,2.59,1.69,5.12,2.59,7.68l2.27-.11V778.48a39.36,39.36,0,0,0-7-11.23c-7.59-8.8-8.94-17.32-.81-25.55a16.91,16.91,0,0,1,9.45-5.12V568h.13V736.58a17,17,0,0,1,9.46,5.12c8.13,8.23,6.78,16.75-.82,25.55a40,40,0,0,0-6.73,10.6V933.58l2,.1c.91-2.56,2.48-5.09,2.6-7.68.47-10.29-1.79-21.3,1.12-30.76,7.43-24.17,15.64-48.32,26.27-71.22,7.81-16.85,17-33.07,26.24-49.3,8.74-10.19,17.5-20.37,25.94-30.81,2-2.53,3.51-6.89,2.94-10Q1612.6,639.75,1594.61,545.68Z"/><rect class="cls-4" x="1461.83" y="495.53" width="77.5" height="22.79"/></svg>