<svg id="Layer_1" data-name="Layer 1" xmlns="http://www.w3.org/2000/svg" viewBox="0 0 663.8 407.99"><defs><style>.cls-1{fill:#fff;}</style></defs><title>Artboard 2ldpi</title><path class="cls-1" d="M265.64,52.65q0,11.09-15.34,23,14,20.63,14,38,0,4.26-2.55,4.26c-1.36,0-2.05-1.87-2.05-5.62q0-17-11.92-34.59Q223,96.1,180.53,109.48t-75.4,13.37q-4.6,0-8-.34-27.25,38-27.26,73.27,0,24,14.91,38t40.64,14q48.56,0,86.55-46.52,23-28.11,23-53.33,0-13.29-8-21.13t-21.26-7.84q-21.26,0-45.67,22.41t-24.41,41.83c0,1.14.34,1.7,1,1.7a2.52,2.52,0,0,0,1.35-.68q4.56-4.08,8.45-4.09,8.61,0,8.61,9.37,0,12.61-12.26,12.61-11.25,0-11.25-13.63,0-24.36,24.71-48.3t50.09-23.94q32.72,0,32.72,36,0,37.14-35.53,67.73t-78.81,30.58q-30.15,0-50.69-20.27T53.5,180.1q0-29,20.28-59.46Q0,107,0,62.36,0,35.78,27.43,17.89T95.76,0q57.08,0,115.35,38a102.72,102.72,0,0,1,20.62-2Q265.63,36,265.64,52.65Zm-59.3-14q-51.79-30-110.24-30Q60,8.69,33,25.73T6,65.6q0,40.73,69.18,52.65Q118.09,58.44,206.34,38.68Zm40,36.63Q233.27,56.4,211.11,41.75q-31.86,8.69-62.19,29.9T99.17,120q35.61,0,78.8-13T246.38,75.31Zm16.53-22.66q0-14-27.26-14a104.19,104.19,0,0,0-20.28,2.38,134.92,134.92,0,0,1,33.57,32.55Q262.9,61.68,262.91,52.65Z"/><path class="cls-1" d="M270.53,263l6.17,70.87L287.63,263H299l10.16,71.26L316.32,263h11.44L316.32,363.7H304.48l-11.19-75.89L281.07,363.7H269.63L259.21,263Z"/><path class="cls-1" d="M363.53,297.58a14.06,14.06,0,0,0-7.21-2.18c-4.37,0-8,2.31-10.93,6.68V363.7H333.94V285.11h7.85l2.19,6.56c3.34-5,7.71-7.59,13.24-7.59a14.37,14.37,0,0,1,9.52,3.34Z"/><path class="cls-1" d="M386.42,267c0,4-2.18,7.2-6.81,7.2-4.38,0-6.56-3.21-6.56-7.2s2.18-7,6.56-7C384.24,260,386.42,263.11,386.42,267Zm-.9,18.14V363.7H374.08V285.11Z"/><path class="cls-1" d="M401.47,285.11V271.34l11.07-4.63v18.4h13.12v9.64H412.54V344.4c0,5.92,3.34,9.52,8.36,9.52a9.38,9.38,0,0,0,5.79-2.06l3.08,9.78a18.3,18.3,0,0,1-10.67,3.08c-12.35,0-17.63-9.26-17.63-20.32V294.75H393v-9.64Z"/><path class="cls-1" d="M449.33,267c0,4-2.19,7.2-6.82,7.2-4.37,0-6.56-3.21-6.56-7.2s2.19-7,6.56-7C447.14,260,449.33,263.11,449.33,267Zm-.9,18.14V363.7H437V285.11Z"/><path class="cls-1" d="M468.11,285.11l1.8,4.5a21.31,21.31,0,0,1,14.15-5.53c9,0,16.46,6.17,16.46,19V363.7H489.07V305.56c0-6.43-2.44-10.16-8.23-10.16-3.34,0-6.3,1.41-9.13,4.11V363.7H460.26V285.11Z"/><path class="cls-1" d="M511.58,303.11c0-11.83,8.62-19,19.55-19a20,20,0,0,1,10.42,2.7l14.28-.77-6.43,9.9a21.76,21.76,0,0,1,1.29,7.2V324c0,11.83-8.75,19-19.56,19a25.29,25.29,0,0,1-4.5-.39,7.48,7.48,0,0,0-3.08,6.17c0,3.22,1.93,5.41,6.56,5.41h22.51L548.11,364h-22c-5.66,0-7.85,2.58-7.85,6.05s2.19,6,6.43,6h18l-4.5,9.65H522.52c-10.55,0-15.95-7.2-15.95-15.18a14.58,14.58,0,0,1,9.52-14.15,11.12,11.12,0,0,1-1.8-6.43c0-4.37,2.18-7.59,5.66-9.9-5.15-3.09-8.37-8.75-8.37-16.08Zm10.81,20.71c0,5.66,3.6,8.62,8.74,8.62s8.75-3,8.75-8.62V303.24c0-5.78-3.73-8.61-8.75-8.61s-8.74,2.83-8.74,8.61Z"/><path class="cls-1" d="M262.23,115.8v29.33A20.65,20.65,0,0,1,274.58,141c9,0,16.46,6.17,16.46,19v60.58H279.59V162.49c0-6.43-2.44-10.16-8.23-10.16-3.34,0-6.3,1.41-9.13,4.12v64.18H250.78v-102Z"/><path class="cls-1" d="M313,195.93v6.31c0,5.4,3.47,8.36,8.23,8.36s8.36-3,8.36-8.36v-5l10.42-2.7v8.1c0,11.83-8.49,19-19.16,19s-18.91-7.21-18.91-19V160.05c0-11.84,8.36-19,19-19,9.25,0,19.29,5,19.29,20.71,0,9.65-3.86,16.46-12.61,23.67A124.12,124.12,0,0,1,313,195.93Zm0-11.06a67.34,67.34,0,0,0,8.87-6.69c5.28-4.89,7.34-9.39,7.34-15.69,0-8.1-3.86-10.93-8.36-10.93-4.89,0-7.85,3.34-7.85,9Z"/><path class="cls-1" d="M351.76,149.76c3.73-5.53,10.8-8.75,18.26-8.75,12.48,0,18.66,8.88,18.66,21.35v58.27h-7.21l-2.06-4.37a22.87,22.87,0,0,1-14.4,5.4c-8.62,0-16.59-5.4-16.59-20.32,0-11.58,4.76-18.78,16.2-27.4,3.73-2.7,8.36-5.79,13.25-8.88v-2.44c0-6.56-3.09-11.06-9.39-11.06a12,12,0,0,0-10.42,6Zm26.11,56.59V176.13c-3.09,1.92-5.4,3.47-7.59,5.14-8.1,6.3-10.42,11.83-10.42,18.39,0,8,3.35,11.19,8.49,11.19C372,210.85,375,209.18,377.87,206.35Z"/><path class="cls-1" d="M408.1,142l1.93,4.89A20.71,20.71,0,0,1,424.31,141c8.61,0,16.2,6.17,16.2,19v42.57c0,12.86-7.59,19-16.2,19a20,20,0,0,1-12.61-4.5v25.46H400.25V142Zm3.6,14.79v49c2.83,2.95,5.79,4.5,9.39,4.5,5.53,0,8-3.73,8-10.16V162.49c0-6.43-2.44-10.16-8-10.16C417.49,152.33,414.53,153.87,411.7,156.83Z"/><path class="cls-1" d="M470,250.86c0,5.79,3.47,8.74,8.62,8.74s8.74-3,8.74-8.74V248.8L498.28,246v5.14c0,12.35-9,19.94-20.19,19.94s-19.81-7.59-19.81-19.94V186.67c0-12.34,8.49-19.93,20.45-19.93s19.55,7.59,19.55,19.93V190H487.35v-3.09c0-5.79-3.21-8.75-8.49-8.75s-8.87,3-8.87,8.75Z"/><path class="cls-1" d="M515,168.54l11.45,74.86,11.7-74.86h11.45L532.25,269.25H520.54L503.43,168.54Z"/><path class="cls-1" d="M607.07,374s45.78,76.51-149.21,0c0,0-52.56-10.93-64.43,8.2,0,0,18.65-24.59,78-5.47C471.42,376.72,629.11,439.57,607.07,374Z"/><path class="cls-1" d="M628.85,214.3a3.53,3.53,0,0,0-.2-.66l-2.56-13.54c-.84-4.71-1.61-9.1-2.43-13.49-3.21-17-6.46-34-9.61-51.07a6,6,0,0,1,.3-3.82c4.32-7.46,13-22.79,13-22.79l7.71-13.35L620.79,74.06c20.41-8.91,26.28-26,43-26.93H606.22V192.59h-.05V47.13H548.58c16.74.92,22.61,18,43,26.93L577.34,95.58l7.71,13.35s8.66,15.33,13,22.79a6.08,6.08,0,0,1,.3,3.82c-3.16,17-6.41,34.05-9.61,51.07-.37,2-.73,4-1.09,6L582,222.66q-6.72,35.49-13.31,71a5.89,5.89,0,0,0,1.24,4.21c3.55,4.4,7.25,8.69,10.93,13,3.9,6.84,7.77,13.68,11.06,20.78a235.62,235.62,0,0,1,11.07,30c1.23,4,.28,8.63.48,13a12.2,12.2,0,0,0,1.09,3.23l1,0V312.43a16.59,16.59,0,0,0-3-4.74c-3.2-3.7-3.77-7.3-.34-10.76a7.09,7.09,0,0,1,4-2.16V223.69h.05v71.08a7.12,7.12,0,0,1,4,2.16c3.42,3.46,2.85,7.06-.35,10.76a17.17,17.17,0,0,0-2.84,4.47V377.8l.86,0a12.2,12.2,0,0,0,1.09-3.23c.2-4.34-.75-9,.47-13a237.2,237.2,0,0,1,11.08-30c3.29-7.1,7.16-13.94,11.06-20.78,3.68-4.29,7.37-8.58,10.93-13a5.94,5.94,0,0,0,1.24-4.21Q636.43,253.95,628.85,214.3Z"/><rect class="cls-1" x="572.89" y="193.16" width="32.67" height="9.61"/></svg>