<svg id="Layer_1" data-name="Layer 1" xmlns="http://www.w3.org/2000/svg" viewBox="0 0 539.24 543.04"><title>noun-customer-care-1861213</title><path d="M417.06,538c0,3.39-3.4,5.09-5.94,5.09H7.24C3.85,543,1.3,540.49,1.3,538c-17-125.57,137.45-167.15,139.15-168,3.4-.85,5.94.85,7.64,3.39,17,33.94,60.24,29.7,61.09,29.7H210c.84,0,44.12,4.24,61.09-29.7,1.69-2.54,4.24-4.24,7.63-3.39.86.85,155.27,42.42,138.3,168Z"/><path d="M498.51,55.15a6.69,6.69,0,0,0-6.79,6.79c0,3.39,3.39,5.94,6.79,5.94a7.3,7.3,0,0,0,6.79-6.79C505.3,57.7,502.75,55.15,498.51,55.15Z"/><path d="M389.9,55.15a6.69,6.69,0,0,0-6.79,6.79,7.29,7.29,0,0,0,6.79,6.79c4.24-.85,6.79-3.4,6.79-6.79C396.69,57.7,394.14,55.15,389.9,55.15Z"/><path d="M532.45,0H356a6.69,6.69,0,0,0-6.79,6.79V117.94a6.69,6.69,0,0,0,6.79,6.79h17v28.85c0,5.94,6.79,8.48,11,5.09l36.48-33.09h112a6.69,6.69,0,0,0,6.79-6.79V6.79A6.69,6.69,0,0,0,532.45,0ZM389.9,80.61a19.21,19.21,0,0,1-19.52-19.52c0-10.18,9.34-18.66,19.52-18.66a19.19,19.19,0,0,1,19.51,19.51C409.41,72.12,400.93,80.61,389.9,80.61Zm54.3,0a19.2,19.2,0,0,1-19.51-19.52,19.52,19.52,0,0,1,39,0A19.21,19.21,0,0,1,444.2,80.61Zm54.3,0A19.2,19.2,0,0,1,479,61.09c0-10.18,9.33-18.66,19.51-18.66A19.2,19.2,0,0,1,518,61.94C518,72.12,509.54,80.61,498.5,80.61Z"/><path d="M444.21,55.15a6.79,6.79,0,1,0,0,13.58A7.3,7.3,0,0,0,451,61.94C451,57.7,448.45,55.15,444.21,55.15Z"/><path d="M76,225.7h32.24v40.72H76a1.82,1.82,0,0,1-1.7-1.69V227.4a1.83,1.83,0,0,1,1.7-1.7Z"/><path d="M232.94,310.55a3.65,3.65,0,0,1,3.39,3.39v7.64a3.65,3.65,0,0,1-3.39,3.39h-31.4a3.65,3.65,0,0,1-3.39-3.39v-7.64a3.65,3.65,0,0,1,3.39-3.39Z"/><path d="M286.39,278.31a4.66,4.66,0,0,0-2.55,4.24,135.47,135.47,0,0,1-11,29.69H249.05a16.49,16.49,0,0,0-16.12-14.42H201.54a16.11,16.11,0,0,0-16.12,16.12v7.64a16.11,16.11,0,0,0,16.12,16.12h32.24c7.64,0,14.43-5.09,15.27-12.73h16.13c-25.46,33.94-60.25,27.16-61.94,26.31-.85,0-55.15,5.94-68.73-66.18-.85-5.09-4.24-3.4-13.57-12.73V230.79c5.09-6.78,1.69-5.93,2.54-12.72,43.28,7.63,95.88-11,134.91-32.24,10.19,12.72,29.7,22.91,38.19,28a48.92,48.92,0,0,1-2.55,11c-.85,3.39.85,5.93,3.4,8.48v36.49a59.93,59.93,0,0,1-11,8.48Z"/><path d="M297.42,199.4c-35.64-19.52-32.24-33.09-40.73-28-39.88,20.36-89.94,42.42-134.06,33.09,0-14.43-3.39-27.15,1.7-45,11.87-42.43,61.09-70.43,138.3-31.4l.84.85c29.7,10.19,35.64,39,33.94,70.43Z"/><path d="M305.06,279.16h15.27v13.57a18.83,18.83,0,0,1-18.67,18.67H286.39a166.39,166.39,0,0,0,8.48-24.61,24.23,24.23,0,0,0,10.19-7.63Z"/><path d="M76.81,213C80.2,130.66,137.9,64.49,209.17,64.49s129,66.18,132.36,148.48H309.29c2.54-17,2.54-40.73-3.4-56.85-8.48-25.45-22.06-33.09-46.67-43.27C219.34,95,170.13,89.09,137,117.09c-36.48,31.39-27.15,73-27.15,96.73H76.8Z"/><path d="M344.09,227.4v37.33a1.83,1.83,0,0,1-1.7,1.7H310.15V225.7h32.24a1.83,1.83,0,0,1,1.7,1.7Z"/></svg>