<svg id="Layer_1" data-name="Layer 1" fill="black" xmlns="http://www.w3.org/2000/svg" viewBox="0 0 521.39 420.89"><title>noun-place-order-832773</title><path d="M521.39,210,486,341.83H307.79L265.38,187.45H239.51v-11.2h34.4l42.42,154.38H477.42l29.35-109.35-170.14.6,0-11.2ZM472.79,358.4H311v11.2H472.79ZM347.58,399.78a21.12,21.12,0,1,1-21.12-21.12A21.14,21.14,0,0,1,347.58,399.78Zm-11.2,0a9.92,9.92,0,1,0-9.92,9.91A9.93,9.93,0,0,0,336.38,399.78Zm138.45,0a21.12,21.12,0,1,1-21.12-21.12A21.14,21.14,0,0,1,474.83,399.78Zm-11.2,0a9.92,9.92,0,1,0-9.92,9.91A9.93,9.93,0,0,0,463.63,399.78ZM11.2,374.64H246.11v11.2H0V0H449.12V160.71h-11.2V81.46H11.2Zm0-363.44V70.27H437.92V11.2Zm95.05,39.54A10.19,10.19,0,1,0,96.07,40.55,10.18,10.18,0,0,0,106.25,50.74Zm-31.82,0A10.19,10.19,0,1,0,64.25,40.55,10.19,10.19,0,0,0,74.43,50.74Zm-31.82,0A10.19,10.19,0,1,0,32.43,40.55,10.19,10.19,0,0,0,42.61,50.74ZM180.69,317.47l36.75-36.75L180.9,244.16,173,252.08l23.13,23.13H87.88V169.64H76.68V286.41H195.91l-23.14,23.13Z"/></svg>