<svg id="Layer_1" data-name="Layer 1" xmlns="http://www.w3.org/2000/svg" viewBox="0 0 363.14 363.14"><defs><style>.cls-1{fill:#03b7b1;}.cls-2{fill:#fff;}</style></defs><title>Artboard 1 copy 26ldpi</title><circle class="cls-1" cx="167.98" cy="198.04" r="149.53"/><path class="cls-2" d="M203.85,113.93h2.27c1.22.24,2.42.58,3.65.71,12.41,1.31,24.82,2.59,37.65,3.93-.32,3.15-.62,6-.92,8.85-3.12,29.66-6.4,59.3-9.27,89a72.72,72.72,0,0,1-7.2,26c-4.56,9.14-8.47,18.61-12.68,27.93-2.17,4.79-4.39,9.56-6.58,14.34-35.45-7.39-70.53-14.72-105.62-22a4.22,4.22,0,0,1-3.82-3.84c-1.58-8.05-3.44-16-5.15-24.06-1.66-7.74-3.28-15.48-5-23.48l61.82-13c-4.61-21.41-9.12-42.34-13.67-63.5l42.81-8.94c4.51,20.88,8.9,41.17,13.29,61.47,1.86-11,3.07-21.83,4.21-32.71Q201.8,134.3,203.85,113.93Zm-1,107.88c.08-3.55-3.6-7-7.57-7.05-3.77-.07-7.1,3.6-7.12,7.84,0,3.91,3,6.53,7.66,6.61C199.72,229.29,202.76,226.07,202.86,221.81Zm-30.9-4c0-4-3-6.91-7.27-7-4.77,0-7.18,2.2-7.21,6.71,0,4.66,2.4,7,7.29,7.17A6.64,6.64,0,0,0,172,217.83Z"/></svg>