<svg id="Layer_1" data-name="Layer 1" xmlns="http://www.w3.org/2000/svg" viewBox="0 0 363.14 363.14"><defs><style>.cls-1{fill:#0f2105;}.cls-2{fill:#2bde73;}</style></defs><title>Artboard 1 copy 34ldpi</title><circle class="cls-1" cx="184.01" cy="191.71" r="165.25"/><path class="cls-2" d="M172.07,160.63l1.12-1.6Q189,136.2,204.73,113.38a44.61,44.61,0,0,1,4.55-5.61,27,27,0,0,1,23.27-8.41c10.95,1.14,19,6.86,23.93,16.49s4.34,19.48-1.78,28.56c-9.53,14.11-19.27,28.08-28.92,42.11-.32.47-.62.94-1,1.48.41.54.8,1.06,1.2,1.57,11.57,14.67,22.93,29.52,34.79,44,8.68,10.55,7.69,26.26-.08,35.84-4.66,5.74-10.41,9.73-17.8,11a31.81,31.81,0,0,1-16.1-1.19,22.54,22.54,0,0,1-10.33-7.44q-11.07-13.86-22.18-27.69L173,217.49a4,4,0,0,0-1.25-1.1v1.48q0,14.83,0,29.67a42.2,42.2,0,0,1-2,14.13c-3.62,10.27-10.63,16.82-21.51,18.76a32.82,32.82,0,0,1-15.31-.88c-8.26-2.48-13.75-8-17.16-15.79a40.3,40.3,0,0,1-3.07-16c0-5.54,0-11.07,0-16.61V132.31a39.61,39.61,0,0,1,2.54-14.73c2.5-6.29,6.41-11.45,12.38-14.85a29.76,29.76,0,0,1,16.85-3.49c9.72.58,17.22,5.18,22.89,13a20.24,20.24,0,0,1,4.11,11.58c.09,2.79.24,5.58.25,8.37,0,8.94,0,17.89,0,26.83v1.53Z"/></svg>