<svg id="Layer_1" data-name="Layer 1" xmlns="http://www.w3.org/2000/svg" viewBox="0 0 363.14 363.14"><defs><style>.cls-1{fill:#fff;}.cls-2{fill:#185790;}.cls-3{fill:#ed1b2e;}</style></defs><title>Artboard 1 copy 24ldpi</title><circle class="cls-1" cx="170.98" cy="199.75" r="99.71"/><path class="cls-2" d="M244.9,163.88a5.23,5.23,0,1,1,5.22-5.23A5.23,5.23,0,0,1,244.9,163.88Zm0-9.74a4.51,4.51,0,1,0,4.5,4.51A4.51,4.51,0,0,0,244.9,154.14Z"/><path class="cls-2" d="M128.3,217.18l7.16,8.67c-.42.48-.83,1-1.25,1.42a28.62,28.62,0,0,1-9.21,6.85,26.33,26.33,0,0,1-9.35,2.3,34.76,34.76,0,0,1-15.78-2.56,28.77,28.77,0,0,1-17.28-19.57,36.69,36.69,0,0,1-1.17-12A33.13,33.13,0,0,1,84,190.92a28.54,28.54,0,0,1,12.47-13.85,33.23,33.23,0,0,1,12.84-4,34.58,34.58,0,0,1,8.26,0,26,26,0,0,1,13.19,5.71,34.32,34.32,0,0,1,4.5,4.44l.19.26-7.09,8.59c-.74-.68-1.44-1.37-2.19-2a20.55,20.55,0,0,0-9.3-4.8c-9-1.84-19.08,2.63-22,13.42a21.27,21.27,0,0,0,1.57,15.93,17.65,17.65,0,0,0,12.93,9.49c6,1.16,11.36-.48,16.11-4.24.87-.7,1.67-1.48,2.49-2.23A4.08,4.08,0,0,0,128.3,217.18Z"/><path class="cls-2" d="M189.36,154.71v19.12h12.77v11.58H189.37c0,.16,0,.28,0,.41V218a11.79,11.79,0,0,0,.43,3.45,4.67,4.67,0,0,0,4.23,3.46,13.52,13.52,0,0,0,7.12-1.25c1.19-.52,2.32-1.19,3.47-1.79.21-.11.4-.24.67-.4-.19.77-.37,1.47-.55,2.16-.8,3.13-1.6,6.25-2.38,9.37a.79.79,0,0,1-.41.53,19.82,19.82,0,0,1-10.07,2.7,15,15,0,0,1-6.11-1,13.17,13.17,0,0,1-7-6.69A19.41,19.41,0,0,1,177,220V185.43H166.4V173.84H177v-.45c0-3.92,0-7.83,0-11.75a.45.45,0,0,1,.26-.47l11.78-6.3Z"/><path class="cls-3" d="M134.31,163.71a61.12,61.12,0,0,1,101.32,0H221.51a.71.71,0,0,1-.58-.26,51.94,51.94,0,0,0-15.49-11A48.83,48.83,0,0,0,182.52,148a48.54,48.54,0,0,0-12.91,2.43A51.22,51.22,0,0,0,149,163.48a.77.77,0,0,1-.47.22H134.31Z"/><path class="cls-2" d="M155.22,235.32H142.68v-61.5h12.54Z"/><path class="cls-2" d="M215,235.3V173.82h12.55V235.3Z"/><path class="cls-2" d="M242.92,155.62a10.64,10.64,0,0,1,1.71-.13,3.12,3.12,0,0,1,2,.5,1.45,1.45,0,0,1,.54,1.16,1.65,1.65,0,0,1-1.3,1.55v0a1.62,1.62,0,0,1,1,1.24,9.68,9.68,0,0,0,.53,1.67h-.92a7.35,7.35,0,0,1-.46-1.46,1.28,1.28,0,0,0-1.38-1.18h-.84v2.64h-.89Zm.89,2.77h.91c.95,0,1.55-.45,1.55-1.15s-.64-1.14-1.58-1.14a4.72,4.72,0,0,0-.88.07Z"/></svg>