<svg id="Layer_1" data-name="Layer 1" xmlns="http://www.w3.org/2000/svg" viewBox="0 0 363.14 363.14"><defs><style>.cls-1{fill:#00b1b8;}.cls-2{fill:#fff;}</style></defs><title>Artboard 1 copy 31ldpi</title><circle class="cls-1" cx="164.21" cy="175.45" r="117.85"/><path class="cls-2" d="M212.35,176.45a16,16,0,1,1,15.9,15.62A15.81,15.81,0,0,1,212.35,176.45Z"/><path class="cls-2" d="M205.93,143.78a14.36,14.36,0,1,1-14.43-14A14.23,14.23,0,0,1,205.93,143.78Z"/><path class="cls-2" d="M205.93,176.49a14.37,14.37,0,1,1-14.41-14A14.22,14.22,0,0,1,205.93,176.49Z"/><path class="cls-2" d="M205.93,209.14a14.36,14.36,0,1,1-14.45-13.94A14.29,14.29,0,0,1,205.93,209.14Z"/><path class="cls-2" d="M158,251.23c-5.37.47-12.65-4.2-12.74-12.4a12.78,12.78,0,0,1,25.56,0C170.78,246.88,163.61,251.72,158,251.23Z"/><path class="cls-2" d="M158.05,101.82a12.48,12.48,0,0,1,12.76,12.38,12.66,12.66,0,0,1-12.76,12.46c-7,0-12.83-5.65-12.77-12.46A12.47,12.47,0,0,1,158.05,101.82Z"/><path class="cls-2" d="M157.93,189a12.45,12.45,0,1,1,.23-24.89c7,.06,12.8,5.79,12.67,12.56A12.64,12.64,0,0,1,157.93,189Z"/><path class="cls-2" d="M170.81,144a12.76,12.76,0,1,1-12.3-12.59A12.64,12.64,0,0,1,170.81,144Z"/><path class="cls-2" d="M170.82,209.18A12.76,12.76,0,1,1,158,196.76,12.67,12.67,0,0,1,170.82,209.18Z"/><path class="cls-2" d="M129.33,154.71a9.33,9.33,0,1,1,9.56-9.27A9.53,9.53,0,0,1,129.33,154.71Z"/><path class="cls-2" d="M129.28,185.84a9.33,9.33,0,1,1,9.61-9.3A9.54,9.54,0,0,1,129.28,185.84Z"/><path class="cls-2" d="M129.48,198.31a9.34,9.34,0,1,1-9.73,9.1A9.49,9.49,0,0,1,129.48,198.31Z"/><path class="cls-2" d="M94.24,176.47a9.54,9.54,0,1,1,9.5,9.37A9.41,9.41,0,0,1,94.24,176.47Z"/></svg>