<svg id="Layer_1" data-name="Layer 1" xmlns="http://www.w3.org/2000/svg" viewBox="0 0 363.14 363.14"><defs><style>.cls-1{fill:#39454e;}.cls-2{fill:#fff;}</style></defs><title>Artboard 1 copy 20ldpi</title><circle class="cls-1" cx="186.05" cy="189.56" r="113.77"/><path class="cls-2" d="M209.67,214.37a22.16,22.16,0,0,1,2.62,14.68,21.16,21.16,0,1,1-23.44-24.71c1.48-.2,1.76-.74,2.08-2.15,1-4.37-.41-7.27-4.48-9.08a18.81,18.81,0,0,1-3-2.09c-1.93,2.6-4.64,2.66-7.25,2.86-.55.05-1.5-.28-1.62-.64a2.15,2.15,0,0,1,.5-1.82c1.49-1.44,3.11-2.74,4.76-4.16-3.16-5-2.2-10.45-1.4-16-7.81,3.06-15.68,3.26-24,1.78,13.85-5.95,25.24-14.81,36.66-24.27-.75-.45-1.23-.72-1.69-1-2.74-1.75-4.6-6.34-3.85-9.43.69-2.8,4-5.43,7.37-5.63a4.67,4.67,0,0,1,3,.9,3.82,3.82,0,0,0,3.46.72c1.27-.25,2.56-.4,3.84-.59l.29.41a19.75,19.75,0,0,1-2.33,2.16c-1.39,1-1.76,1.87-1,3.52,1,2.1,1.37,4.41-.37,6.39a13.63,13.63,0,0,1-2.68,2,9.63,9.63,0,0,1-1.37.67c0,.17,0,.27.06.29,3.06,1.44,4.33,4.42,6.07,7a6,6,0,0,0,6.32,2.77c3.31-.48,6.64-.75,9.94-1.21a3.72,3.72,0,0,0,1.8-1c3.68-3.4,7.32-6.84,11-10.27.42-.39.86-.77,1.45-1.31,1.3,2.39,2.54,4.56,3.62,6.8.16.34-.31,1.18-.71,1.55-3.45,3.21-6.94,6.37-10.42,9.55-.43.39-.83.81-1.37,1.35a24.1,24.1,0,0,1,2.48.47c.42.13,1.05.48,1.07.76a1.75,1.75,0,0,1-.64,1.31,30.59,30.59,0,0,1-2.92,1.72c-.44.25-.9.48-1.57.82l6,4.46c4.77-4.83,10.38-7.33,17.11-6.9a20.57,20.57,0,0,1,13.72,6.19,21.19,21.19,0,0,1-26.37,32.83c-8.84-5.54-13.36-17.69-6.55-29.52l-5.85-4.14c-.3,2.72-.56,5.18-.84,7.64-.64,5.63-1.46,11.25-1.82,16.89-.11,1.74.95,3.58,1.63,5.3.13.33,1,.47,1.59.48,1.61,0,3.23-.21,4.82,0,.71.07,1.34.88,2,1.35-.49.64-.86,1.59-1.51,1.87a62.44,62.44,0,0,1-6.26,2.15,1.58,1.58,0,0,0-1.35,1.71c-.17,3.1-2.77,4.93-5.89,4.41A11.2,11.2,0,0,0,209.67,214.37Zm20-35.09c-3.89,4.9-4.66,15.64,3.75,22.15a16.77,16.77,0,1,0,19.68-27.15c-8.05-5.53-18-2.32-21.39,2.47.31.25.62.52.95.77,3.87,2.9,7.76,5.76,11.57,8.75.54.43,1.09,1.67.85,2.13-.58,1.15-1.61.57-2.44,0-.64-.43-1.26-.9-1.9-1.34Q235.19,183.17,229.65,179.28Zm-39.38,29.41c-7.17.1-13.72,5.85-15.27,13.27a16.78,16.78,0,0,0,29.87,13.4c4-5.42,4.54-13.92,1-18-.48.3-1,.61-1.46.93-4.05,2.75-8.08,5.53-12.16,8.21a2.66,2.66,0,0,1-2.22.44,2.63,2.63,0,0,1-.77-2.1c.25-4.83.62-9.64.94-14.46C190.29,209.85,190.26,209.27,190.27,208.69Zm6.31-42.38-5.86,11.75c1.64-.29,2.91-.55,4.19-.72,4.32-.58,8.65-1.29,12.86.59a1.08,1.08,0,0,0,1-.15c2.59-2.52,5.15-5.08,7.71-7.63l-.15-.65a11.64,11.64,0,0,0-2.5,0c-1.1.22-2.13.75-3.23,1-1.36.37-2.9,1.16-4.11.84C202.82,170.38,199.31,169,196.58,166.31Zm-3.05,42.36c-.33,4.66-.65,9.12-1,14l11.84-8A17,17,0,0,0,193.53,208.67Zm20.54-16.58.48,0q1-8.48,1.91-17a44.68,44.68,0,0,0-5.75,5.24c-.26.27-.22.86-.25,1.31C210.22,185.65,212.8,188.63,214.07,192.09Zm-5.5,2.16-.62.11c-.83,1.83-1.63,3.68-2.49,5.5a1.39,1.39,0,0,0,.64,2.07,38.66,38.66,0,0,1,3.93,2.46c.95.74,2.06,1,2.7.21a3.1,3.1,0,0,0,.36-2.75C211.74,199.24,210.1,196.77,208.57,194.25Zm-14.76,10a22,22,0,0,1,13.73,7.22,1.15,1.15,0,0,0,1.12.15c.57-.47-.2-3.53-.92-3.8-2.29-.84-4.58-1.69-6.88-2.48-1.41-.48-2.25-1.27-2.06-2.88a1.39,1.39,0,0,0-.3-1.12c-1.29-1-2.66-1.84-4.24-2.9Zm-7.65-15,0,.43,6.41,4.31,6.24-6.27-.23-.32Zm9,6.51,4.71,3.17,3.47-10.67-.46-.18Z"/><path class="cls-2" d="M127.22,228.74c-2.53-1.09-4.61-1.93-6.64-2.87a1.42,1.42,0,0,0-2,.44,37.54,37.54,0,0,1-4.77,4.86c.19-2,.3-4.06.58-6.07a2,2,0,0,0-1.47-2.53,27.31,27.31,0,0,1-5.66-2.8c2.13-.48,4.24-1,6.38-1.41a1.6,1.6,0,0,0,1.54-1.75c.13-2.18.4-4.35.66-7.09,1.36,2.3,2.49,4.08,3.48,5.95a1.76,1.76,0,0,0,2.4,1.08,32.63,32.63,0,0,1,6.45-1.14c-1.31,1.49-2.55,3.06-4,4.47-1,1.05-1.25,1.92-.35,3.22C125,224.75,125.94,226.55,127.22,228.74Z"/><path class="cls-2" d="M141.77,243.18c.2-2.12.35-4.26.6-6.38a1.62,1.62,0,0,0-1.17-2,35.23,35.23,0,0,1-6-2.94c2.18-.49,4.34-1,6.53-1.45a1.49,1.49,0,0,0,1.44-1.63,33,33,0,0,1,1-6.64c1.1,1.87,2.25,3.7,3.29,5.6a1.59,1.59,0,0,0,2.13.91c2.11-.56,4.26-1,6.94-1.58L153,231c-2.15,2.46-2.15,2.46-.46,5.33.79,1.33,1.56,2.66,2.59,4.43-2.48-1.05-4.55-1.87-6.56-2.81a1.52,1.52,0,0,0-2.14.46c-1.39,1.7-2.88,3.32-4.34,5Z"/><path class="cls-2" d="M146.67,186c1.35,2.3,2.46,4.06,3.43,5.9a1.91,1.91,0,0,0,2.56,1.14,25.07,25.07,0,0,1,6.27-1c-1.39,1.58-2.73,3.2-4.19,4.72a1.7,1.7,0,0,0-.25,2.47c1.16,1.78,2.16,3.66,3.51,6L150.24,202l-5.62,6.28c.22-2.63.31-4.76.62-6.85a1.78,1.78,0,0,0-1.38-2.25,28,28,0,0,1-5.7-2.87c2.05-.46,4.08-1,6.15-1.36a1.79,1.79,0,0,0,1.73-2C146.14,190.78,146.41,188.65,146.67,186Z"/><path class="cls-2" d="M211.25,156.19c4.7-4.18,9-8,13.35-11.82a3,3,0,0,1,1.84-.3c1.29,0,2.57.19,4.32.33l-4.32,4.07c-2.31,2.16-4.66,4.27-6.9,6.5a3.79,3.79,0,0,1-3.17,1.19C214.83,156.09,213.28,156.17,211.25,156.19Z"/></svg>