<svg id="Layer_1" data-name="Layer 1" xmlns="http://www.w3.org/2000/svg" viewBox="0 0 363.14 363.14"><defs><style>.cls-1{fill:#ec8450;}.cls-2{fill:#fff;}</style></defs><title>Artboard 1 copy 29ldpi</title><circle class="cls-1" cx="174.94" cy="197.98" r="100.97"/><path class="cls-2" d="M112.23,164.11c.33-.19.35-.52.38-.84a5.56,5.56,0,0,1,5.08-5.08c.64-.05,1.28-.12,1.92-.12H217.5c1.46,0,1.33-.12,1.33,1.36V180.2c0,1.08,0,1.09-1.12,1.09H141.34c-.41,0-.81,0-1.21,0a3.24,3.24,0,0,0-3.29,3.27c0,.24,0,.48,0,.72,0,5-.05,9.94,0,14.9a42.1,42.1,0,0,0,10.38,27.75,41.1,41.1,0,0,0,22,13.44,36.54,36.54,0,0,0,10.21,1.07,40.77,40.77,0,0,0,9-1.5,42,42,0,0,0,29.95-32.86,42.09,42.09,0,0,0,.69-7.84c0-5.8,0-11.6,0-17.4,0-.22,0-.43,0-.64,0-.54.08-.6.61-.63.16,0,.32,0,.48,0h22.31c1.1,0,1.1,0,1.1,1.11,0,6.45,0,12.89,0,19.33a61.69,61.69,0,0,1-2.93,18.68,62.45,62.45,0,0,1-11.47,20.82,66.7,66.7,0,0,1-19.68,16.14A68.37,68.37,0,0,1,188.42,265c-1.89.33-3.82.49-5.74.69-1,.11-2,.12-3.05.2a6.11,6.11,0,0,0-.85.18h-1a8,8,0,0,0-1.09-.18,63.68,63.68,0,0,1-8.72-.82,67.54,67.54,0,0,1-41.16-23.4,61.76,61.76,0,0,1-12.22-23.44A57,57,0,0,1,113,210c-.23-1.89-.28-3.8-.41-5.7,0-.37,0-.76-.35-1Z"/></svg>