<svg id="Layer_1" data-name="Layer 1" xmlns="http://www.w3.org/2000/svg" viewBox="0 0 363.14 363.14"><defs><style>.cls-1{fill:#191a1c;}.cls-2{fill:#fff;}</style></defs><title>Artboard 1 copy 22ldpi</title><circle class="cls-1" cx="190.6" cy="180.26" r="146.92"/><path class="cls-2" d="M134.17,121.19a285.45,285.45,0,0,1,29,1.29c6.16.64,12.27,1.67,18.4,2.55a10.1,10.1,0,0,1,1.93.55c4.79,1.6,7.31,5,7.93,10a48.44,48.44,0,0,1-.44,13.39,249,249,0,0,1-15.13,55.71c-1.1,2.68-2.34,5.31-3.65,7.9-3.8,7.5-14.95,7.25-19.21,1.59-.88-1.16-1.77-2.31-2.54-3.54-3.2-5-6.33-10.11-9.53-15.13a20.25,20.25,0,0,0-2.62-3.47,5.69,5.69,0,0,0-8.28,0,21.12,21.12,0,0,0-2.68,3.54c-3.19,5-6.3,10.05-9.47,15.06a38.73,38.73,0,0,1-2.55,3.54c-2.6,3.19-6,4.31-10.07,4.12a10.53,10.53,0,0,1-9.6-6.47c-2-4.15-3.73-8.38-5.38-12.66A227.29,227.29,0,0,1,80.1,164c-1.22-5.74-2.27-11.53-3-17.33a54.2,54.2,0,0,1-.28-10.27c.36-6.3,3.58-10,9.79-11.36,3.94-.85,8-1.43,12-1.92A298.76,298.76,0,0,1,134.17,121.19Z"/><path class="cls-2" d="M197.3,168.65a49.31,49.31,0,0,1,6.43-24.38c6.12-10.52,15.26-17.18,26.93-20.31a56.28,56.28,0,0,1,34.66,1.45,32.42,32.42,0,0,1,15.61,11.43,26.27,26.27,0,0,1-8.51,38.36,32.09,32.09,0,0,1-16.31,4.05c-4.54-.05-9-.44-13.26-2.23a47.85,47.85,0,0,1-5.07-2.85c-.64-.37-1.32-1.18-2-.65-.42.33-.48,1.3-.46,2a21,21,0,0,0,5.76,14.13,19.18,19.18,0,0,0,11.11,5.57,33.47,33.47,0,0,0,20.22-3,16.28,16.28,0,0,1,4.33-1.51,7,7,0,0,1,8,8.83,20,20,0,0,1-5.32,8.88c-4,4.24-9,6.81-14.49,8.58a60.74,60.74,0,0,1-23.36,2.54,49.26,49.26,0,0,1-20.64-5.89c-11.11-6.16-18-15.61-21.5-27.69A60.35,60.35,0,0,1,197.3,168.65Z"/></svg>