<svg id="Layer_1" data-name="Layer 1" xmlns="http://www.w3.org/2000/svg" viewBox="0 0 363.14 363.14"><defs><style>.cls-1{fill:#d81212;}.cls-2{fill:#fff;}</style></defs><title>Artboard 1 copy 21ldpi</title><circle class="cls-1" cx="182.99" cy="201.84" r="111.1"/><path class="cls-2" d="M248,156.24a2.34,2.34,0,1,1,2.34-2.34A2.34,2.34,0,0,1,248,156.24Zm0-4.35a2,2,0,1,0,2,2A2,2,0,0,0,248,151.89Z"/><path class="cls-2" d="M247.09,152.55a4.3,4.3,0,0,1,.77-.06,1.4,1.4,0,0,1,.89.22.66.66,0,0,1,.24.52.73.73,0,0,1-.58.69h0a.7.7,0,0,1,.45.55,3.81,3.81,0,0,0,.24.75h-.41a3.42,3.42,0,0,1-.21-.65c-.09-.37-.25-.52-.61-.53h-.38v1.18h-.4Zm.4,1.24h.41c.42,0,.69-.21.69-.52s-.29-.51-.71-.51a2.53,2.53,0,0,0-.39,0Z"/><path class="cls-2" d="M110.78,225.2a2.35,2.35,0,1,1,2.34-2.35A2.34,2.34,0,0,1,110.78,225.2Zm0-4.36a2,2,0,1,0,2,2A2,2,0,0,0,110.78,220.84Z"/><path class="cls-2" d="M109.9,221.5a4.26,4.26,0,0,1,.76-.06,1.42,1.42,0,0,1,.9.22.66.66,0,0,1,.24.52.75.75,0,0,1-.58.7h0a.7.7,0,0,1,.45.55,3.61,3.61,0,0,0,.24.75h-.41a3.63,3.63,0,0,1-.21-.66.57.57,0,0,0-.62-.52h-.37v1.18h-.4Zm.4,1.24h.4c.43,0,.7-.21.7-.52s-.29-.51-.71-.51a2.41,2.41,0,0,0-.39,0Z"/><path class="cls-2" d="M103.69,189.65c-1.11,2.88-2.27,5.63-3.23,8.44a31,31,0,0,0-1.72,14.46c1.25,8.56,6.73,14.33,15.26,16.36a33.77,33.77,0,0,0,16.91-.68l58.78-15.9c3.82-1,7.63-2.08,11.42-3.32H184.54c-1.66,0-1.65,0-1.7-1.72q-.26-10.31-.52-20.62a1.46,1.46,0,0,0-.25-.87c-.48,1.25-1,2.49-1.45,3.74q-3.5,9.19-7,18.38a1.43,1.43,0,0,1-1.57,1.13c-4.13-.05-8.25,0-12.59,0,.25-.73.43-1.33.65-1.91q10.16-27.28,20.3-54.56a1.54,1.54,0,0,1,1.72-1.25c3.8.07,7.61,0,11.41,0,.36,0,.71,0,1.25.07l-6.14,16.15.2.12,5.93-7.15c2.24-2.71,4.5-5.41,6.7-8.16a2.47,2.47,0,0,1,2.14-1.05q19.56,0,39.1,0c.35,0,.71,0,1.27.08-.6,1.59-1.14,3.05-1.7,4.51s-1.1,2.61-1.5,4c-.29,1-.81,1.19-1.75,1.17-3.81,0-7.61,0-11.42,0-.67,0-1.14.1-1.4.83-1.28,3.57-2.62,7.13-3.93,10.7a2.34,2.34,0,0,0,0,.48h12.86c-.16.53-.26.91-.4,1.28-1,2.77-2.11,5.51-3.06,8.3a1.68,1.68,0,0,1-1.95,1.3c-3.44-.07-6.88,0-10.32-.06a1.63,1.63,0,0,0-1.84,1.28c-1.33,3.77-2.77,7.51-4.17,11.26-.13.37-.25.75-.44,1.3h15.78c-.52,1.51-1,2.83-1.5,4.4,1.44-.36,2.7-.67,4-1L287.07,186a7.28,7.28,0,0,1,1.54-.25.69.69,0,0,1,.56.33.71.71,0,0,1-.26.6,11.7,11.7,0,0,1-1.6.86q-33,14.3-66,28.59-26.83,11.6-53.68,23.17c-13,5.57-25.94,11.13-39,16.57-6.58,2.74-13.31,5.08-20.43,6C99,263,90.59,261.27,83.3,255.2c-4.93-4.12-6.81-9.49-6.46-15.75.43-7.82,3.41-14.85,7-21.64,5.37-10.13,12.18-19.26,19.55-28A2.59,2.59,0,0,1,103.69,189.65Zm112.06-36.2-.33-.26a2.13,2.13,0,0,1-.24.55c-6.29,6.9-12.6,13.79-18.86,20.73a2.88,2.88,0,0,0-.6,1.84c.06,4,.2,7.93.31,11.89l.48,16,.21,0Q206.23,178.82,215.75,153.45Z"/><path class="cls-2" d="M163.38,151.47c-.51,1.41-1,2.69-1.44,4q-9.83,26.17-19.63,52.35a1.62,1.62,0,0,1-1.84,1.27c-4.05-.05-8.1,0-12.14,0-.4,0-.79,0-1.29-.07.53-8.15,1-16.21,1.58-24.27l-.17-.06c-.44,1.16-.9,2.32-1.34,3.48q-3.69,9.88-7.35,19.78a1.48,1.48,0,0,1-1.67,1.16c-3.76-.05-7.53,0-11.29,0-.35,0-.7,0-1.22-.07.73-2,1.42-3.88,2.13-5.76l18.19-48.48c1.27-3.36,1.25-3.37,4.82-3.38h11.07L140.2,176l.17.06c.69-1.81,1.39-3.62,2.07-5.43q3.44-9.13,6.85-18.29c.23-.61.44-1.06,1.24-1.06,4,0,8.09,0,12.14,0A5.29,5.29,0,0,1,163.38,151.47Z"/><path class="cls-2" d="M178.81,151.41c-.77,2.05-1.48,4-2.2,5.89q-9.45,25.2-18.89,50.42a1.73,1.73,0,0,1-1.92,1.34c-3.6-.07-7.2,0-10.81,0h-1.53c.75-2,1.42-3.92,2.13-5.8q9.43-25.2,18.88-50.4a1.93,1.93,0,0,1,2.18-1.52c3.6.09,7.2,0,10.81,0C177.85,151.34,178.24,151.38,178.81,151.41Z"/></svg>