<svg id="Layer_1" data-name="Layer 1" xmlns="http://www.w3.org/2000/svg" viewBox="0 0 363.14 363.14"><defs><style>.cls-1{fill:#4d5b7f;}.cls-2{fill:#fff;}</style></defs><title>Artboard 1 copy 19ldpi</title><circle class="cls-1" cx="172.78" cy="197.58" r="124.82"/><path class="cls-2" d="M175.86,258.55h-3l-51.18,0C114,258.52,110,254.6,110,247q0-51.67,0-103.36c0-7,4-11,11-11q52-.08,104-.09c7.42,0,11.45,4.1,11.44,11.53q0,51.41-.08,102.82c0,7.53-4.16,11.67-11.65,11.68h-28c-.07-.87-.19-1.64-.19-2.4,0-14.9.06-29.79,0-44.69,0-2.2.55-2.94,2.85-2.88,5.64.17,11.29.06,17.21.06V190H196.27c.35-4.76.34-9.15,1.08-13.42.69-3.94,4.65-6.36,9.68-6.71,1.61-.11,3.23-.1,4.84-.12h4.9c0-5.94,0-11.74-.07-17.53,0-.46-1-1.27-1.56-1.29-7.36-.34-14.69-.27-21.86,1.93-8.1,2.48-12.73,8.27-14.87,16-1.33,4.79-1.7,9.85-2.34,14.81a50.13,50.13,0,0,0,0,6.16H162.55v18.76h13.31Z"/></svg>