<svg id="Layer_1" data-name="Layer 1" xmlns="http://www.w3.org/2000/svg" viewBox="0 0 363.14 363.14"><defs><style>.cls-1{fill:#fff;}.cls-2{fill:#dfa22f;}.cls-3{fill:#3cb187;}.cls-4{fill:#72c5cd;}.cls-5{fill:#62803a;}.cls-6{fill:#248c73;}.cls-7{fill:#ce1e5b;}.cls-8{fill:#bb242a;}.cls-9{fill:#392538;}.cls-10{fill:#443642;}</style></defs><title>Artboard 1 copy 25ldpi</title><rect class="cls-1" x="131.46" y="146.29" width="101.6" height="101.15" transform="translate(-52.1 66.28) rotate(-18.08)"/><path class="cls-2" d="M246.25,229.18l31.9-10.41a99.11,99.11,0,0,0-30.31-96.52l-33,10.77Z"/><path class="cls-3" d="M118.27,164.55,85,175.41a99.15,99.15,0,0,0,32.52,95.8l32.14-10.5Z"/><path class="cls-4" d="M214.86,133l-11-33.53a99.07,99.07,0,0,0-96.63,31.4l11,33.66Z"/><path class="cls-5" d="M247.84,122.25a98.72,98.72,0,0,0-43.93-22.76l11,33.53Z"/><path class="cls-6" d="M107.28,130.89A98.71,98.71,0,0,0,85,175.41l33.27-10.86Z"/><path class="cls-7" d="M149.66,260.71l10.39,31.83a99.09,99.09,0,0,0,96.53-31.7l-10.33-31.66Z"/><path class="cls-8" d="M246.25,229.18l10.33,31.66a98.62,98.62,0,0,0,21.57-42.07Z"/><path class="cls-9" d="M117.52,271.21a98.8,98.8,0,0,0,42.53,21.33l-10.39-31.83Z"/><path class="cls-10" d="M180.27,153.1c10.52,0,19.64,2,28,7,3.41,2,3.79,3.37,2.21,6.9q-1.47,3.27-3,6.48c-1.43,2.91-2.64,3.21-5.7,1.9a122.81,122.81,0,0,0-12.56-5,19.9,19.9,0,0,0-14.46.6,11.09,11.09,0,0,0-4.52,3.89c-2.17,3.47-1.33,6.74,2.39,8.43a73.69,73.69,0,0,0,11.2,3.55c5.29,1.44,10.73,2.4,15.93,4.08,20,6.48,18,29.35,8.5,39.06-6,6.11-13.42,8.88-21.62,9.55-11,.9-21.66-.69-31.52-6a38.41,38.41,0,0,1-5.69-3.89,4.32,4.32,0,0,1-1.34-5.71c1.35-2.63,2.67-5.28,4.26-7.77s3.82-3,6.53-1.36c5.14,3.15,10.44,6,16.49,6.84,4.48.65,9.05.88,13.39-.77A11.3,11.3,0,0,0,193,218.1c2.93-3.19,2.32-7.48-1.72-9.5a68.39,68.39,0,0,0-11.57-4c-5.19-1.5-10.56-2.44-15.64-4.23-8.85-3.11-14.64-9.1-15.12-18.94-.53-10.9,3.68-19.39,13.61-24.53A36.21,36.21,0,0,1,180.27,153.1Z"/></svg>