<svg id="Layer_1" data-name="Layer 1" xmlns="http://www.w3.org/2000/svg" viewBox="0 0 363.14 363.14"><defs><style>.cls-1{fill:#febf02;}.cls-2{fill:#00345f;}</style></defs><title>Artboard 1 copy 27ldpi</title><circle class="cls-1" cx="178.04" cy="183.01" r="140.57"/><path class="cls-2" d="M37.47,186.55v-6.86a16.9,16.9,0,0,0,.29-2A140.56,140.56,0,0,1,95.45,69.56a138.77,138.77,0,0,1,77.2-26.82,19.71,19.71,0,0,0,2-.3h6.86a14.34,14.34,0,0,0,1.84.28A136.9,136.9,0,0,1,231,53c31.37,12.92,55,34.48,71.13,64.3,1.13,2.08,2.12,4.25,3.31,6.65-1,.06-1.63.11-2.29.13a63.83,63.83,0,0,0-15.92,2c-6.07,1.76-12.16,3.49-18.24,5.23-9.15,2.62-18.31,5.2-27.44,7.88a3.18,3.18,0,0,1-3.39-.68q-23.79-20.64-47.64-41.21-16.25-14-32.51-28.09c-.48-.41-1.22-1-1.72-.87-2.55.54-5.06,1.27-7.76,2,.44.66.76,1.19,1.12,1.67q22.07,29.48,44.11,59a27,27,0,0,1,3.06,4.89c1,2.28,1.71,4.71,2.54,7.08s1.69,4.9,2.55,7.39a17.4,17.4,0,0,1-1.66.68q-9.69,2.81-19.38,5.57c-12.12,3.44-24.29,6.66-36.16,10.95-12.38,4.49-24.88,8.65-37.32,13l-26.34,9.15q-17.28,6-34.57,12c-2.34.82-4.7,1.58-7.43,2.5-.42-4.79-.81-9.28-1.21-13.76C37.72,189.15,37.59,187.85,37.47,186.55Z"/><path class="cls-2" d="M207.14,170c1,4.08,1.75,8.23,2.92,12.27s.59,8.25.21,12.39q-.81,8.86-1.6,17.75c-.63,7.34-1.23,14.68-1.85,22q-1.15,13.65-2.33,27.32c-.11,1.3-.22,2.6-.37,4.29,2-.6,3.72-1.23,5.5-1.64a4.59,4.59,0,0,0,3.7-3.61c4.08-13.49,8.27-26.94,12.47-40.39Q232.86,197.69,240,175c1.5-4.79,3-9.6,4.43-14.39a2.57,2.57,0,0,1,1.93-2.06c10.16-2.83,20.29-5.76,30.42-8.71,6.89-2,13.84-3.86,20.59-6.28,3.93-1.41,7.52-3.78,11.25-5.74.6-.31,1.16-.69,2-1.21.89,2.84,1.79,5.47,2.55,8.13a135.84,135.84,0,0,1,4.38,54.86c-5,38.47-22.51,70-53,94.15a135.35,135.35,0,0,1-66,28.3c-37.23,5.26-71.38-3-102-24.68-26.6-18.83-44.15-44.32-53.42-75.54-.89-3-1.5-6.11-2.31-9.14-.3-1.09,0-1.54,1.07-1.79,11.5-2.68,23-5.41,34.47-8.1,9.16-2.14,18.34-4.23,27.5-6.39,10.21-2.4,20.42-4.86,30.63-7.28,9-2.14,18.12-4.13,27.13-6.43,6.9-1.76,13.71-3.9,20.57-5.85q12.17-3.47,24.35-6.9A2.86,2.86,0,0,1,207.14,170Z"/></svg>