<svg id="Capa_1" data-name="Capa 1" xmlns="http://www.w3.org/2000/svg" viewBox="0 0 502.69 478.05"><defs><style>.cls-1{fill:#010002;}</style></defs><title>payment-methods-svgrepo-com</title><path class="cls-1" d="M482.8,264.61c4.53-5.83,6.73-13.34,4.72-21L428.05,18.2A24.45,24.45,0,0,0,398.2.82L18.18,101A24.56,24.56,0,0,0,.8,130.89L60.27,356.28a24.52,24.52,0,0,0,29.87,17.41l134.28-35.42v75.48c0,42.21,70,64.3,139.11,64.3S502.69,456,502.69,413.75V299.29C502.68,285.55,495.16,274,482.8,264.61Zm-43-77.7L446,210.38l-75.54,20-6.17-23.51ZM395.93,38.41l11.8,44.7-118,31.15-11.8-44.7Zm-53,174,6,22.95c-27.93,1.25-55.11,6.12-76.94,14.45l-4.61-17.43ZM80,306.91l-6.17-23.43,75.52-20,6.22,23.56Zm90.64-49,75.48-20,5.72,21.5c-1.84,1.12-3.56,2.29-5.25,3.47l-69.78,18.43Zm306.87,154c0,24.61-51,44.54-114,44.54S249.6,436.48,249.6,411.89V384.17a15,15,0,0,1,.69-2.65c3.6,23.34,52.65,41.85,113.24,41.85s109.69-18.51,113.27-41.85a16.13,16.13,0,0,1,.69,2.65Zm0-54.53c0,24.59-51,44.52-114,44.52S249.6,382,249.6,357.36V329.64a15.66,15.66,0,0,1,.69-2.65c3.6,23.32,52.65,41.87,113.24,41.87S473.22,350.31,476.8,327a16.67,16.67,0,0,1,.69,2.65Zm-114-13.57c-62.9,0-113.94-19.93-113.94-44.5s51-44.5,113.94-44.5,114,19.93,114,44.5S426.5,343.79,363.53,343.79Z"/></svg>