<svg id="Layer_1" data-name="Layer 1" xmlns="http://www.w3.org/2000/svg" xmlns:xlink="http://www.w3.org/1999/xlink" viewBox="0 0 1919.76 339"><defs><style>.cls-1{opacity:0.83;}.cls-2,.cls-4{opacity:0.41;}.cls-2{fill:url(#linear-gradient);}.cls-3,.cls-5{opacity:0.69;}.cls-3{fill:url(#linear-gradient-2);}.cls-4{fill:url(#linear-gradient-3);}.cls-5{fill:url(#linear-gradient-4);}</style><linearGradient id="linear-gradient" y1="177.64" x2="1919.76" y2="177.64" gradientUnits="userSpaceOnUse"><stop offset="0" stop-color="#ca00e7"/><stop offset="0.42" stop-color="#7500d0"/><stop offset="1" stop-color="#2f005c"/></linearGradient><linearGradient id="linear-gradient-2" x1="0" y1="140.41" x2="1919.76" y2="140.41" xlink:href="#linear-gradient"/><linearGradient id="linear-gradient-3" x1="-2419.86" y1="-2832.78" x2="-500.1" y2="-2832.78" gradientTransform="translate(-500.1 -2671.42) rotate(180)" xlink:href="#linear-gradient"/><linearGradient id="linear-gradient-4" x1="-2419.86" y1="-2870.01" x2="-500.11" y2="-2870.01" gradientTransform="translate(-500.1 -2671.42) rotate(180)" xlink:href="#linear-gradient"/></defs><title>Artboard 3ldpi</title><g class="cls-1"><path class="cls-2" d="M1919.76,88.22V292H0V80.94s359-69.65,567.76,77.63c145.71,102.82,284.58,103.44,609-63.08,87-44.64,274-38.81,345-7.27C1621,132.3,1766.76,228.92,1919.76,88.22Z"/><path class="cls-3" d="M0,30.61V280.82H1919.76V21.68S1560.73-63.84,1352,117c-145.71,126.24-284.58,127-609-77.44C656-15.27,469-8.11,398,30.61,298.75,84.74,153,203.37,0,30.61Z"/></g><g class="cls-1"><path class="cls-4" d="M0,250.78V47H1919.76V258.06s-359,69.65-567.76-77.63C1206.29,77.61,1067.42,77,743,243.51c-87,44.64-274,38.81-345,7.27C298.75,206.7,153,110.08,0,250.78Z"/><path class="cls-5" d="M1919.76,308.39V58.18H0V317.32S359,402.84,567.76,222c145.71-126.24,284.58-127,609,77.44,87,54.82,274,47.66,345,8.94C1621,254.26,1766.76,135.63,1919.76,308.39Z"/></g></svg>