<svg id="Layer_1" data-name="Layer 1" xmlns="http://www.w3.org/2000/svg" xmlns:xlink="http://www.w3.org/1999/xlink" viewBox="0 0 1919.76 93"><defs><style>.cls-1,.cls-3{opacity:0.69;}.cls-2{opacity:0.41;fill:url(#linear-gradient);}.cls-3{fill:url(#linear-gradient-2);}</style><linearGradient id="linear-gradient" x1="-4709.1" y1="-9033.47" x2="-2789.34" y2="-9033.47" gradientTransform="translate(-2789.34 -8997.05) rotate(180)" gradientUnits="userSpaceOnUse"><stop offset="0" stop-color="#ca00e7"/><stop offset="0.42" stop-color="#7500d0"/><stop offset="1" stop-color="#2f005c"/></linearGradient><linearGradient id="linear-gradient-2" x1="-4709.1" y1="-9045.33" x2="-2789.34" y2="-9045.33" xlink:href="#linear-gradient"/></defs><title>Artboard 2ldpi</title><g class="cls-1"><path class="cls-2" d="M0,64.9V0H1919.76V67.22S1560.73,89.4,1352,42.5C1206.29,9.75,1067.42,9.55,743,62.59,656,76.8,469,75,398,64.9,298.75,50.86,153,20.09,0,64.9Z"/><path class="cls-3" d="M1919.76,83.25V3.56H0V86.1s359,27.23,567.76-30.36c145.71-40.21,284.58-40.45,609,24.66,87,17.46,274,15.18,345,2.85C1621,66,1766.76,28.23,1919.76,83.25Z"/></g></svg>