<svg id="Layer_1" data-name="Layer 1" xmlns="http://www.w3.org/2000/svg" xmlns:xlink="http://www.w3.org/1999/xlink" viewBox="0 0 1920.68 913.48"><defs><style>.cls-1,.cls-4,.cls-5,.cls-6,.cls-7{fill:none;}.cls-2{opacity:0.69;fill:url(#linear-gradient);}.cls-3{clip-path:url(#clip-path);}.cls-4,.cls-6{stroke:#f9d9ea;}.cls-4,.cls-5,.cls-6,.cls-7{stroke-miterlimit:10;}.cls-4{stroke-width:0.94px;}.cls-5,.cls-7{stroke:#cdecf9;}.cls-6{stroke-width:0.91px;}.cls-7{stroke-width:1px;}</style><linearGradient id="linear-gradient" x1="1180.55" y1="9797.2" x2="9659.64" y2="9255.73" gradientTransform="translate(-2440.73 -9341.91)" gradientUnits="userSpaceOnUse"><stop offset="0" stop-color="#ca00e7"/><stop offset="0.42" stop-color="#7500d0"/><stop offset="1" stop-color="#2f005c"/></linearGradient><clipPath id="clip-path"><rect class="cls-1" x="7.92" y="126.55" width="1919" height="804"/></clipPath></defs><title>Artboard 2ldpi</title><path class="cls-2" d="M1.65.17l1919-.14,0,469.92S1237.7,708,788.7,692.18C267.5,673.8,0,470.1,0,470.1S1.65-10.49,1.65.17Z"/><g class="cls-3"><path class="cls-4" d="M1940.42,257.05c-39.84-26-435.3-143.26-1023.06,237.5C714.18,626.17-95.08,1073.05,18.25,197.05"/><path class="cls-5" d="M1.42,747.66c39.85,26,435.3,143.26,1023.07-237.5,203.17-131.62,1012.44-578.5,899.11,297.5"/><path class="cls-6" d="M-85.58,411c42.67-22.5,466.15-124,1095.58,205.6,217.57,113.95,1084.19,500.8,962.83-257.54"/><path class="cls-7" d="M1928.42,772.69c-50.19,20.79-548.34,114.53-1288.75-189.87C383.73,477.59-635.7,120.32-492.94,820.66"/></g></svg>